<?xml version="1.0" standalone="no"?>
<!DOCTYPE svg PUBLIC "-//W3C//DTD SVG 20010904//EN"
 "http://www.w3.org/TR/2001/REC-SVG-20010904/DTD/svg10.dtd">
<svg version="1.0" xmlns="http://www.w3.org/2000/svg"
 width="591.000000pt" height="591.000000pt" viewBox="0 0 591.000000 591.000000"
 preserveAspectRatio="xMidYMid meet">
<metadata>
Created by potrace 1.14, written by Peter Selinger 2001-2017
</metadata>
<g transform="translate(0.000000,591.000000) scale(0.100000,-0.100000)"
fill="#000000" stroke="none">
<path d="M3090 5629 c0 -5 5 -7 10 -4 6 3 10 8 10 11 0 2 -4 4 -10 4 -5 0 -10
-5 -10 -11z"/>
<path d="M3074 5595 c0 -13 3 -22 7 -19 4 2 11 -1 14 -7 5 -6 13 -3 22 11 8
12 12 24 9 27 -3 4 -6 1 -6 -6 0 -7 -5 -9 -12 -5 -7 5 -8 3 -3 -6 5 -8 3 -11
-6 -8 -8 3 -14 10 -14 16 0 5 -2 13 -5 16 -4 3 -6 -5 -6 -19z"/>
<path d="M3010 5588 c0 -4 4 -8 9 -8 6 0 12 4 15 8 3 5 -1 9 -9 9 -8 0 -15 -4
-15 -9z"/>
<path d="M3037 5578 c-13 -14 -22 -16 -31 -9 -10 8 -19 6 -35 -8 -18 -16 -19
-20 -6 -25 11 -4 14 -2 9 7 -5 9 -4 9 6 0 10 -9 10 -15 -3 -27 -14 -14 -16
-14 -22 2 -6 16 -7 16 -17 -1 -5 -10 -7 -25 -4 -34 5 -13 4 -14 -9 -3 -10 9
-12 17 -5 30 7 13 6 19 -4 23 -10 4 -12 0 -8 -15 4 -15 1 -19 -9 -16 -8 3 -12
12 -11 19 2 8 0 10 -4 6 -12 -11 -14 -38 -2 -31 5 3 8 -2 6 -12 -2 -11 -11
-23 -22 -29 -10 -5 -18 -14 -18 -20 0 -5 -9 -15 -21 -22 -12 -7 -16 -12 -9
-13 6 0 12 -9 12 -21 0 -13 4 -18 13 -13 9 6 9 5 0 -8 -7 -8 -9 -19 -5 -23 4
-5 2 -5 -5 -1 -6 3 -16 -1 -21 -10 -6 -11 -11 -13 -16 -5 -4 6 -2 11 4 11 6 0
8 5 4 12 -4 6 -3 8 4 4 6 -3 9 1 7 11 -2 10 -4 21 -4 26 -1 4 -6 7 -12 7 -8 0
-8 -4 -1 -13 12 -14 -10 -51 -24 -39 -4 4 -2 -1 5 -10 11 -15 11 -21 1 -33 -7
-8 -9 -15 -5 -15 4 0 2 -6 -4 -14 -9 -11 -9 -16 0 -22 8 -5 9 -3 4 6 -5 8 -4
11 2 7 6 -4 10 3 9 15 0 12 6 23 14 25 12 4 12 3 2 -5 -8 -5 -14 -13 -14 -17
0 -4 6 -12 14 -16 10 -7 10 -9 0 -9 -7 0 -10 -5 -7 -10 4 -6 11 -7 17 -4 7 4
8 2 4 -5 -6 -9 -11 -9 -24 1 -13 11 -15 10 -9 -5 5 -13 0 -20 -16 -26 -12 -5
-26 -6 -31 -3 -5 3 -7 -2 -3 -11 4 -12 2 -14 -10 -10 -12 5 -15 2 -10 -10 4
-10 2 -16 -6 -14 -7 1 -11 -6 -11 -15 1 -11 -4 -14 -14 -11 -10 4 -13 2 -8 -5
3 -6 2 -13 -4 -17 -6 -4 -8 -11 -5 -16 9 -14 -4 -11 -20 4 -11 11 -10 16 6 26
11 6 17 17 13 23 -5 7 -3 8 6 3 9 -5 11 -4 6 4 -9 13 12 44 24 36 4 -3 13 2
20 10 7 8 17 12 23 8 5 -3 7 -1 3 5 -3 6 -1 14 5 18 8 4 9 3 5 -4 -4 -7 -1
-12 8 -12 9 0 13 6 10 14 -3 7 -17 14 -31 14 -15 0 -20 -3 -13 -8 9 -5 9 -9 1
-14 -6 -4 -15 -4 -21 -1 -6 4 -7 -1 -3 -11 4 -11 2 -15 -4 -11 -6 4 -16 0 -23
-7 -6 -8 -20 -13 -31 -11 -10 2 -19 -1 -19 -7 0 -5 7 -8 15 -4 17 6 21 -9 5
-19 -6 -4 -8 -10 -5 -15 3 -5 -4 -12 -16 -15 -19 -6 -20 -7 -2 -21 10 -7 14
-14 8 -14 -5 0 -3 -5 5 -10 13 -8 12 -10 -4 -10 -11 0 -16 5 -13 13 3 8 0 14
-7 14 -8 0 -11 -9 -8 -24 2 -12 9 -20 15 -16 6 3 7 1 3 -5 -4 -6 -13 -9 -21
-6 -8 4 -12 10 -9 15 3 5 -2 6 -12 2 -15 -5 -15 -7 0 -15 9 -5 13 -14 10 -20
-5 -8 -1 -9 10 -5 10 4 15 3 11 -3 -3 -6 -13 -10 -21 -10 -15 0 -19 -15 -6
-23 4 -2 2 -2 -5 -1 -6 2 -17 -4 -24 -12 -10 -13 -10 -17 1 -24 8 -5 12 -11 9
-15 -3 -3 -14 4 -24 15 -10 11 -13 20 -8 20 6 0 10 11 9 24 0 13 -5 22 -9 19
-5 -3 -6 -11 -3 -18 2 -7 0 -17 -5 -22 -6 -6 -1 -20 12 -39 13 -16 16 -23 9
-16 -18 16 -38 16 -22 0 20 -20 14 -30 -6 -10 -11 9 -16 22 -12 27 4 6 4 19
-1 30 -7 17 -8 18 -10 3 -1 -10 -2 -24 -3 -30 -1 -7 3 -19 8 -27 9 -11 7 -13
-12 -7 -19 6 -29 -3 -19 -18 1 -2 -7 -13 -17 -25 -15 -16 -21 -18 -27 -9 -6 9
-8 6 -7 -7 0 -11 -3 -29 -7 -40 -5 -14 -4 -16 3 -6 8 11 10 11 14 0 3 -10 6
-10 12 -1 4 7 2 12 -3 12 -6 0 -11 4 -11 10 0 5 4 9 9 7 5 -1 10 3 12 8 1 6 9
16 16 23 7 8 11 17 8 22 -3 5 -1 11 5 15 5 3 10 2 10 -4 0 -6 7 -8 15 -5 8 4
15 1 15 -5 0 -6 -3 -10 -7 -10 -19 3 -33 -2 -33 -12 0 -5 5 -7 12 -3 7 4 8 3
4 -5 -4 -6 -12 -9 -17 -6 -5 4 -9 2 -9 -4 0 -5 3 -11 8 -14 4 -2 2 -2 -5 -1
-17 4 -26 -13 -11 -19 10 -4 10 -6 0 -6 -7 -1 -11 -5 -8 -10 3 -4 -10 -7 -30
-6 -21 1 -33 -3 -31 -9 2 -6 11 -10 19 -8 8 1 15 -4 15 -12 0 -8 -6 -12 -15
-8 -10 4 -13 1 -8 -7 6 -10 4 -10 -12 0 -11 7 -18 19 -15 28 4 14 3 14 -5 1
-6 -8 -8 -18 -5 -24 4 -5 -1 -7 -11 -3 -11 5 -15 3 -10 -5 5 -7 2 -9 -9 -5
-11 4 -14 2 -11 -8 5 -12 9 -12 29 1 18 11 25 12 31 3 4 -8 3 -9 -4 -5 -7 4
-12 2 -12 -4 0 -6 -4 -9 -8 -6 -4 2 -19 -4 -32 -15 -20 -15 -22 -21 -11 -28
10 -7 7 -9 -12 -8 -14 1 -23 5 -20 10 2 4 -3 7 -12 7 -9 0 -13 5 -10 10 5 8
11 8 20 0 16 -13 37 10 26 29 -6 10 -10 9 -15 -4 -3 -9 -10 -14 -15 -11 -5 4
-15 0 -23 -7 -7 -7 -27 -13 -45 -12 -24 1 -30 -3 -28 -16 2 -12 -4 -16 -23
-16 -23 0 -24 1 -9 12 9 7 17 16 17 20 0 5 -8 1 -18 -8 -10 -10 -22 -14 -27
-10 -4 5 -2 -2 4 -14 12 -23 5 -29 -24 -23 -36 7 -45 8 -45 4 0 -3 10 -9 23
-15 l22 -10 -22 5 c-16 3 -23 -1 -24 -12 0 -13 -2 -13 -8 3 -9 21 7 64 18 49
10 -15 31 -15 25 0 -7 19 -34 14 -51 -10 -18 -25 -22 -24 -38 6 -8 14 -14 19
-15 13 0 -7 9 -22 21 -34 30 -30 17 -34 -15 -4 -29 26 -42 32 -30 14 4 -7 1
-10 -7 -7 -8 3 -13 14 -11 24 3 16 1 16 -13 -4 -9 -12 -21 -19 -27 -16 -7 4
-8 2 -4 -4 9 -14 -3 -15 -24 -2 -9 5 -19 5 -26 -1 -9 -7 -16 -5 -23 9 -6 11
-7 23 -3 27 4 5 1 5 -6 1 -9 -5 -9 -13 -2 -26 7 -13 7 -21 0 -25 -13 -8 -13
-25 1 -25 5 0 8 4 5 8 -2 4 6 8 20 8 23 0 35 -15 14 -17 -20 -3 -25 -4 -37
-12 -6 -4 -13 -2 -15 5 -2 6 -12 12 -22 14 -12 2 -16 -2 -12 -12 3 -9 1 -12
-5 -9 -5 4 -18 1 -27 -7 -15 -12 -16 -11 -3 5 15 19 2 24 -17 5 -7 -7 -12 -8
-12 -2 0 5 -5 2 -10 -6 -6 -10 -10 -11 -10 -2 0 19 -20 14 -20 -5 0 -15 -2
-16 -10 -3 -5 8 -7 22 -4 31 4 16 -23 35 -34 24 -3 -3 0 -5 7 -5 7 0 9 -5 6
-10 -4 -7 -11 -7 -18 -2 -19 14 -49 23 -42 12 3 -6 13 -10 22 -10 9 0 13 -3 9
-7 -9 -9 -46 -12 -46 -3 0 3 -7 15 -16 26 -14 18 -15 18 -4 -4 7 -13 9 -26 6
-30 -3 -3 -6 -2 -6 2 0 4 -9 2 -21 -4 -15 -9 -24 -8 -37 2 -10 8 -13 9 -9 1 5
-8 0 -11 -13 -10 -11 1 -20 6 -20 11 0 6 -7 0 -16 -12 -13 -19 -18 -21 -32
-10 -12 11 -16 11 -20 0 -3 -10 -7 -10 -20 0 -14 10 -15 10 -5 -1 6 -7 9 -19
7 -26 -3 -7 0 -16 7 -21 9 -5 10 -2 6 9 -3 9 -1 19 5 23 7 5 8 2 3 -7 -8 -12
-6 -12 8 0 22 17 22 7 0 -18 -9 -11 -20 -18 -25 -15 -5 3 -16 0 -24 -7 -12 -9
-17 -10 -27 0 -9 10 -8 11 8 6 15 -5 16 -4 6 3 -8 6 -9 12 -3 16 6 3 12 0 15
-6 3 -7 5 -4 4 7 -1 13 -8 21 -18 21 -10 0 -15 -4 -12 -9 2 -4 -1 -14 -7 -22
-6 -8 -9 -18 -7 -23 9 -14 -9 -33 -26 -27 -10 4 -13 13 -10 23 4 9 3 14 -1 11
-10 -9 -16 -50 -6 -44 5 3 12 0 16 -6 5 -8 3 -9 -6 -4 -9 6 -12 4 -8 -7 4 -8
0 -15 -8 -15 -7 0 -10 5 -7 11 3 6 3 8 -2 4 -4 -4 -14 -3 -21 3 -8 7 -14 6
-20 -2 -4 -7 -3 -10 2 -7 5 3 15 0 22 -8 7 -8 10 -14 7 -14 -3 0 -1 -9 5 -19
7 -14 7 -22 0 -26 -7 -5 -8 -11 -1 -19 6 -7 6 -17 1 -26 -12 -19 -13 -33 -1
-26 11 7 36 -22 27 -31 -3 -3 -6 -1 -6 6 0 7 -5 9 -10 6 -8 -5 -7 -12 2 -23
10 -12 10 -14 1 -8 -7 4 -13 2 -13 -3 0 -6 4 -11 8 -11 4 0 8 -9 9 -20 1 -11
-3 -20 -9 -20 -6 0 -8 -3 -5 -6 4 -4 15 -1 24 7 10 7 15 9 11 5 -4 -5 -3 -15
4 -23 9 -11 7 -12 -8 -7 -16 6 -17 5 -6 -7 16 -17 16 -37 0 -21 -7 7 -17 12
-22 12 -6 0 0 -7 12 -16 14 -10 21 -22 17 -31 -4 -13 -3 -14 9 -4 10 9 16 9
21 1 5 -8 11 -8 21 1 7 6 11 16 7 22 -4 6 -1 7 6 3 18 -11 -18 -49 -38 -41
-12 5 -13 3 -5 -5 9 -9 17 -9 32 -1 27 14 35 14 30 -1 -3 -7 -11 -13 -18 -13
-7 0 -15 -7 -17 -15 -3 -9 -1 -11 4 -5 4 6 17 10 28 10 11 -1 23 4 27 10 5 7
8 6 8 -1 0 -6 -8 -18 -17 -25 -15 -12 -16 -12 -8 1 4 8 4 12 0 7 -5 -4 -10
-14 -11 -22 -2 -12 3 -11 24 2 l27 17 -24 -27 c-14 -15 -20 -27 -14 -27 6 0
13 5 15 11 2 5 16 12 30 13 22 3 26 0 19 -13 -13 -24 13 -58 32 -42 12 9 14 8
14 -6 0 -36 3 -44 15 -37 6 4 8 3 4 -4 -3 -6 -2 -13 4 -17 5 -3 10 -1 10 6 0
7 3 10 6 6 3 -3 0 -15 -8 -26 -8 -12 -18 -18 -21 -14 -4 3 -7 1 -7 -5 0 -16
10 -15 29 2 12 11 21 12 31 5 13 -9 12 -10 -2 -6 -20 7 -31 -18 -20 -41 5 -9
8 -29 7 -44 -1 -15 2 -25 7 -22 4 3 6 9 3 14 -8 14 23 20 34 6 6 -7 9 -15 6
-18 -3 -2 6 -10 19 -18 14 -7 25 -20 25 -29 2 -37 5 -51 12 -51 15 0 0 65 -17
77 -10 7 -13 13 -7 13 7 0 15 -5 18 -11 4 -6 14 -8 22 -4 14 5 14 3 2 -11 -12
-15 -11 -16 11 -10 l25 7 -23 -14 c-20 -11 -21 -15 -9 -31 8 -11 19 -16 24
-13 6 4 16 0 23 -8 7 -8 17 -12 24 -9 6 3 -1 -6 -16 -20 -34 -30 -36 -42 -5
-22 21 15 47 9 50 -10 1 -5 5 -8 8 -7 4 1 5 -7 2 -17 -5 -18 5 -25 30 -21 5 1
6 -3 2 -9 -3 -5 -1 -10 5 -10 7 0 9 -8 5 -20 -5 -15 -2 -20 10 -20 11 0 15 -5
12 -15 -4 -8 -2 -17 3 -20 6 -4 10 -1 10 4 0 6 4 11 9 11 10 0 9 -19 -1 -36
-4 -6 2 -18 13 -27 11 -10 17 -22 14 -28 -7 -10 -68 -5 -88 8 -6 3 -7 1 -3 -5
4 -7 14 -12 22 -12 8 0 14 -4 14 -10 0 -5 5 -10 11 -10 5 0 7 4 4 10 -3 6 1 7
10 3 13 -5 14 -8 3 -15 -10 -7 -9 -11 6 -23 11 -8 14 -15 7 -15 -7 0 -9 -4 -6
-10 3 -5 0 -10 -7 -10 -9 0 -9 -3 2 -10 12 -7 10 -9 -7 -7 -14 1 -19 5 -14 12
12 15 9 43 -4 49 -8 3 -11 -5 -9 -25 3 -22 0 -28 -9 -23 -6 4 -1 -5 13 -18 14
-14 29 -23 34 -20 5 3 6 0 2 -6 -7 -12 -43 2 -58 23 -4 5 -6 0 -6 -12 1 -12 7
-19 14 -16 7 2 20 -7 30 -22 13 -20 14 -29 5 -38 -10 -9 -11 -8 -5 8 7 18 6
18 -9 6 -9 -7 -15 -17 -12 -21 8 -12 -21 -20 -33 -8 -6 6 -12 6 -17 -3 -5 -7
-4 -10 2 -6 10 6 25 -14 27 -36 1 -4 7 -12 15 -17 17 -10 25 -47 11 -55 -6 -3
-7 1 -4 9 3 9 1 16 -5 16 -6 0 -11 -15 -11 -32 0 -22 3 -29 9 -20 7 11 9 11
14 -2 4 -9 3 -15 -1 -15 -21 3 -24 -3 -7 -14 14 -11 15 -16 5 -22 -8 -5 -11
-4 -6 3 3 5 1 12 -6 14 -11 4 -20 29 -19 60 0 10 -4 20 -8 23 -5 2 -7 -9 -5
-26 3 -22 0 -28 -9 -23 -6 4 -4 -2 5 -13 19 -21 24 -38 9 -29 -5 3 -15 -2 -22
-12 -13 -15 -12 -16 4 -3 19 15 24 2 5 -17 -7 -7 -8 -12 -3 -12 5 0 0 -7 -11
-16 -18 -15 -18 -15 2 -5 12 6 24 7 28 4 3 -3 6 -1 6 5 0 7 -5 12 -11 12 -5 0
-7 5 -4 10 4 6 11 8 16 5 5 -4 6 2 2 12 -6 15 -5 16 9 3 10 -10 12 -17 5 -21
-5 -4 -7 -14 -4 -24 5 -11 3 -14 -5 -9 -8 5 -9 2 -5 -9 7 -19 -1 -49 -12 -43
-4 3 -13 0 -21 -6 -12 -8 -11 -9 4 -4 13 5 17 2 13 -8 -8 -22 16 -38 33 -23
12 10 12 9 1 -5 -11 -15 -11 -18 -1 -18 8 0 10 -3 7 -6 -4 -4 -18 1 -33 11
-15 9 -23 12 -20 6 4 -6 2 -11 -5 -11 -7 0 -4 -6 7 -14 10 -8 15 -18 11 -22
-4 -5 -12 -2 -17 6 -6 10 -10 11 -10 3 0 -15 34 -34 52 -30 7 2 9 2 5 -1 -4
-2 -2 -11 5 -20 12 -15 11 -16 -4 -3 -10 7 -18 11 -18 7 0 -4 -10 0 -23 9 -21
14 -24 14 -24 0 0 -9 5 -14 12 -12 15 6 39 -13 55 -43 12 -24 12 -24 -14 3
-23 25 -55 30 -40 6 3 -5 9 -7 14 -4 8 5 23 -20 25 -40 0 -5 5 -17 9 -25 6 -9
1 -8 -12 4 -12 11 -22 16 -22 11 0 -4 -6 -2 -14 4 -11 10 -14 9 -12 -3 1 -9 5
-19 9 -22 12 -12 8 -26 -5 -18 -8 5 -7 0 2 -11 14 -17 13 -18 -5 -12 -17 6
-18 5 -5 -5 8 -7 16 -26 17 -41 2 -24 0 -27 -12 -17 -7 6 -11 18 -8 26 3 8 1
14 -4 14 -5 0 -9 -11 -9 -25 0 -13 2 -22 5 -20 2 3 10 0 17 -6 18 -15 -1 -53
-22 -45 -8 3 -14 1 -14 -4 0 -14 24 -12 38 2 22 22 12 -3 -15 -40 -16 -20 -20
-31 -10 -23 11 9 17 10 17 2 0 -6 -7 -14 -15 -18 -13 -5 -13 -8 5 -20 11 -8
25 -11 32 -7 7 5 8 3 2 -7 -5 -8 -9 -18 -9 -24 -2 -19 -17 -45 -27 -45 -7 0
-6 5 1 14 9 11 8 15 -5 20 -9 4 -19 4 -22 1 -3 -3 0 -5 6 -5 6 0 10 -9 9 -20
-1 -11 -5 -20 -9 -20 -3 0 -6 -9 -5 -19 1 -12 8 -19 19 -18 23 2 24 17 1 17
-13 0 -14 3 -5 12 9 9 15 8 26 -7 9 -13 11 -22 4 -26 -6 -4 -8 -11 -5 -16 3
-5 0 -10 -7 -10 -8 0 -13 5 -12 11 2 6 1 8 -1 4 -3 -5 -13 -3 -23 2 -13 7 -21
6 -26 -2 -4 -7 -4 -10 1 -6 4 4 22 -1 40 -12 18 -11 35 -17 38 -14 8 8 3 -18
-6 -33 -8 -12 -2 -17 16 -14 5 1 6 -3 2 -9 -3 -5 1 -13 10 -16 12 -5 13 -9 4
-20 -6 -8 -8 -14 -3 -14 5 0 2 -5 -6 -11 -12 -8 -10 -9 7 -4 18 5 21 3 18 -15
-2 -11 0 -18 6 -15 5 4 12 -1 15 -9 3 -9 10 -13 15 -10 5 3 9 0 9 -6 0 -6 5
-8 11 -4 6 3 -2 14 -21 26 -18 10 -30 22 -26 25 3 3 12 0 21 -7 11 -10 18 -10
29 -1 11 9 16 9 22 0 4 -7 3 -9 -4 -5 -6 3 -13 2 -17 -4 -3 -5 3 -10 13 -10
22 0 46 -23 35 -33 -13 -14 13 -6 32 9 20 16 19 16 -4 9 -15 -4 -21 -3 -17 3
3 5 18 12 32 15 20 3 28 0 31 -14 7 -25 19 -24 19 0 0 11 -4 17 -8 15 -4 -3
-8 -1 -8 5 0 17 18 22 24 6 7 -20 36 -8 29 13 -4 14 -3 14 5 3 6 -8 20 -12 36
-9 15 3 29 1 32 -3 3 -5 -2 -9 -10 -9 -9 0 -16 -5 -16 -11 0 -15 43 13 48 32
3 11 2 12 -6 1 -7 -11 -11 -10 -16 4 -3 9 -4 19 -1 22 3 3 5 -1 5 -9 0 -11 2
-11 10 1 7 11 10 11 10 2 0 -7 5 -10 10 -7 6 4 7 12 3 18 -4 7 0 6 10 -2 17
-13 14 -36 -4 -26 -5 4 -9 1 -9 -4 0 -14 17 -14 25 -1 3 6 11 10 16 10 6 0 7
-4 4 -10 -3 -5 -1 -10 4 -10 6 0 11 5 11 12 0 6 10 3 22 -8 16 -13 19 -14 10
-2 -11 14 -10 19 9 31 12 9 28 13 35 10 8 -3 14 0 14 7 0 6 -4 9 -9 6 -5 -3
-15 2 -22 11 -10 12 -10 14 -1 9 6 -4 12 -2 12 3 0 6 8 3 18 -7 11 -9 17 -20
15 -24 -2 -4 2 -10 8 -14 7 -4 9 -3 5 4 -3 6 -2 13 4 17 5 3 10 0 11 -7 0 -7
5 -2 10 11 7 17 12 21 22 13 16 -14 34 -3 34 21 0 22 -9 22 -39 -3 -14 -10
-28 -16 -32 -13 -3 3 -6 1 -6 -7 0 -10 -3 -10 -15 0 -8 7 -15 18 -15 24 0 8 2
8 8 0 8 -12 42 -15 42 -3 0 4 -3 9 -7 12 -5 2 -2 2 4 1 19 -5 44 7 37 17 -3 5
1 6 9 3 8 -3 18 0 22 6 5 8 11 8 20 0 9 -7 16 -6 26 7 12 15 12 16 -6 9 -15
-5 -17 -4 -9 4 9 9 17 9 32 1 29 -15 37 -14 22 4 -9 10 -9 15 -1 15 6 0 11 -4
11 -8 0 -4 9 -8 20 -9 13 -1 18 2 14 9 -4 7 -2 8 4 4 7 -4 12 -2 12 3 0 6 7
11 15 11 9 0 12 6 9 18 -5 15 -4 15 6 -1 11 -18 13 -18 38 5 14 12 22 17 18
11 -4 -7 -2 -13 3 -13 10 0 15 14 12 33 -1 5 3 6 9 2 6 -4 7 -12 1 -24 -6 -10
-6 -23 0 -32 6 -10 9 -11 9 -1 0 8 5 10 13 6 6 -4 9 -4 5 1 -10 10 11 37 23
29 5 -3 9 0 9 5 0 14 -13 14 -28 -1 -7 -7 -12 -8 -11 -3 0 6 14 21 32 35 19
15 26 17 18 7 -12 -15 -12 -20 -2 -27 8 -4 11 -12 8 -17 -3 -5 0 -10 8 -10 15
0 16 18 1 28 -12 9 2 29 19 29 9 0 12 7 9 18 -5 16 -5 16 6 0 13 -21 41 -13
33 10 -4 15 -3 15 6 2 10 -13 15 -8 12 12 0 4 6 5 14 2 8 -4 15 -10 15 -16 0
-5 -5 -6 -12 -2 -7 4 -8 3 -4 -5 5 -7 2 -10 -6 -9 -7 2 -12 -3 -10 -10 1 -8
-6 -11 -23 -8 -14 3 -25 1 -25 -4 0 -5 -8 -7 -17 -3 -10 3 -15 3 -11 -2 9 -9
88 -14 83 -4 -3 3 4 14 15 24 17 15 22 16 37 4 15 -13 15 -12 0 11 -16 25 -8
64 10 47 4 -5 1 -12 -7 -17 -13 -8 -12 -10 3 -10 10 0 15 -4 12 -10 -12 -19 7
-10 26 13 l20 22 -7 -24 c-5 -21 -4 -22 9 -10 8 8 13 17 10 22 -2 4 1 7 6 7
10 0 15 -13 13 -31 -1 -3 6 -6 14 -6 10 0 11 4 4 11 -14 14 -13 29 2 20 7 -4
8 -3 4 4 -4 7 -2 20 4 29 11 17 11 17 6 1 -3 -10 -1 -18 4 -18 5 0 6 -7 3 -17
-4 -11 -3 -14 5 -9 7 4 10 22 7 44 -4 29 -3 32 4 16 14 -31 27 -36 42 -17 12
15 12 16 -6 9 -15 -5 -17 -4 -8 5 19 19 32 1 28 -44 -2 -23 0 -35 3 -27 4 9
13 15 20 14 6 -1 17 -2 23 -3 5 0 7 -6 4 -11 -3 -5 -2 -10 3 -10 5 0 10 11 10
25 0 22 -3 24 -16 13 -11 -9 -14 -9 -9 -1 4 7 0 16 -10 22 -10 6 -13 11 -6 11
6 0 15 -5 19 -11 5 -8 9 -8 14 1 6 9 10 7 14 -8 4 -13 13 -19 22 -15 7 3 14 0
14 -5 0 -6 -9 -9 -20 -7 -12 2 -18 0 -15 -6 4 -5 11 -7 16 -4 16 11 10 -7 -8
-20 -13 -9 -13 -14 -3 -20 8 -5 11 -4 6 3 -9 15 15 21 38 10 13 -7 16 -7 12 1
-4 6 0 11 10 11 12 0 14 3 6 13 -8 10 -6 13 11 14 12 1 17 -1 12 -5 -10 -6
-11 -15 -6 -39 1 -5 5 -2 10 6 15 23 39 21 56 -6 9 -14 14 -27 11 -30 -3 -3
-10 5 -16 19 -7 14 -18 25 -26 25 -19 0 -18 -7 4 -24 15 -13 15 -13 -5 -3 -16
7 -23 7 -23 0 0 -5 6 -10 14 -10 16 0 29 -27 19 -42 -3 -7 -1 -8 6 -4 7 5 9
16 5 29 -6 19 -5 20 9 8 9 -7 14 -18 10 -24 -3 -6 -1 -7 6 -3 6 4 8 12 5 18
-5 8 -1 9 10 5 10 -4 20 -7 22 -7 3 0 2 -5 -1 -10 -10 -17 5 -32 20 -20 9 8
15 8 20 0 8 -13 25 -3 21 13 -1 7 -1 9 1 4 3 -4 10 -4 16 0 7 4 3 -6 -7 -22
l-19 -30 22 19 c11 11 24 16 28 13 3 -4 16 1 27 10 20 17 20 17 6 -1 -14 -18
-13 -19 3 -13 10 4 28 1 40 -5 12 -7 26 -11 30 -10 4 1 3 -7 -3 -19 -13 -23
-25 -77 -15 -68 3 4 8 16 10 29 5 25 23 50 37 50 5 0 8 -6 5 -12 -2 -7 -10
-12 -16 -11 -6 2 -11 0 -11 -3 0 -9 30 -36 31 -27 2 23 8 46 14 51 4 4 5 -2 3
-12 -1 -10 3 -21 10 -23 7 -3 12 -1 11 4 -1 4 -1 15 0 23 1 13 2 13 11 0 6
-10 4 -21 -8 -34 -16 -18 -16 -18 6 -7 12 7 27 9 32 6 6 -3 10 0 10 7 0 10 2
10 9 -1 9 -14 22 -18 68 -23 12 -1 19 -6 17 -10 -3 -4 0 -8 5 -8 6 0 11 5 11
11 0 5 5 7 11 3 8 -5 8 -9 -1 -14 -8 -5 -9 -10 -2 -14 6 -3 13 -2 16 3 4 5 14
8 24 6 9 -2 21 -4 25 -4 5 -1 6 -5 2 -10 -7 -12 22 -41 42 -41 9 0 13 3 9 7
-4 5 -13 8 -19 8 -7 0 -13 9 -14 20 -2 15 -1 16 5 5 4 -8 16 -17 26 -18 18 -3
19 -2 5 15 -13 16 -12 17 3 5 10 -8 14 -21 11 -30 -5 -14 -3 -15 8 -4 7 6 17
12 21 12 9 0 6 -29 -5 -47 -5 -8 -4 -13 2 -13 6 0 11 5 11 11 0 8 4 8 14 0 10
-9 16 -8 26 4 7 8 16 12 21 9 5 -3 -1 -14 -13 -25 l-23 -20 26 15 c14 9 30 13
34 9 5 -5 4 -1 -2 7 -8 11 -7 18 5 30 14 13 15 12 9 -3 -3 -9 -1 -19 5 -23 6
-4 8 -3 5 2 -7 12 1 23 27 44 12 9 17 10 12 3 -4 -7 -2 -14 3 -14 21 -3 26 -4
41 -14 20 -13 41 -15 34 -4 -3 5 -9 7 -14 4 -4 -3 -13 2 -20 10 -7 8 -16 12
-21 9 -5 -3 -9 -1 -9 4 0 6 7 13 16 16 21 8 26 8 20 -2 -3 -5 1 -9 8 -9 7 0
13 6 13 13 0 7 -4 11 -9 8 -10 -6 -6 26 5 44 5 7 13 10 18 7 5 -3 6 1 3 10 -5
12 -2 14 12 8 11 -3 5 6 -13 21 -17 14 -31 35 -30 46 1 10 5 17 9 14 4 -3 5
-11 2 -19 -3 -7 4 -19 16 -25 13 -7 20 -8 16 -2 -3 6 0 13 6 16 7 3 3 3 -9 0
-13 -3 -23 -1 -23 5 0 10 14 15 33 12 5 -1 6 3 2 9 -3 6 -9 8 -13 6 -4 -2 -15
2 -25 9 -16 11 -15 14 14 25 25 11 28 15 15 22 -9 5 -16 14 -16 19 0 6 6 7 13
2 16 -10 41 -14 32 -5 -4 4 -11 8 -16 8 -22 3 -23 5 -9 14 13 8 13 11 1 22
-10 10 -12 10 -7 1 4 -7 3 -13 -2 -13 -15 0 -23 -31 -12 -45 8 -9 5 -14 -10
-18 -13 -3 -18 -1 -13 6 11 17 10 41 -2 49 -6 4 -1 8 9 8 11 0 16 3 13 7 -4 3
0 15 9 25 14 14 14 20 4 33 -10 12 -10 15 4 15 23 0 20 15 -3 17 -14 1 -19 -4
-16 -18 2 -11 0 -17 -5 -14 -5 3 -7 14 -5 25 2 11 0 22 -6 25 -5 4 -9 11 -9
16 0 6 7 3 16 -5 25 -26 35 -18 11 8 -18 20 -25 22 -37 13 -13 -10 -13 -10 -1
5 7 10 17 15 22 12 5 -3 9 9 9 26 0 17 4 29 9 26 5 -3 11 1 14 9 4 9 1 12 -7
9 -8 -3 -17 0 -21 5 -3 6 -12 8 -18 5 -9 -5 -9 -4 0 6 7 8 9 21 3 35 -6 15 -4
22 4 22 7 0 12 -12 11 -28 -1 -16 2 -26 8 -22 6 4 7 1 2 -8 -6 -11 -5 -12 6
-1 10 9 10 15 1 24 -17 17 -15 33 3 18 9 -7 15 -8 15 -2 0 5 -7 13 -16 16 -13
5 -14 9 -4 21 9 10 9 15 1 15 -6 0 -11 -4 -11 -10 0 -5 -5 -10 -10 -10 -7 0
-7 7 0 20 9 16 15 18 30 10 13 -7 21 -7 26 2 4 7 3 10 -1 5 -5 -4 -20 0 -34 9
-14 9 -23 13 -19 9 4 -4 1 -14 -7 -21 -22 -22 -27 -16 -10 10 10 14 12 27 6
30 -5 3 -11 3 -14 -1 -2 -5 -2 -1 1 7 11 38 11 71 0 64 -7 -5 -8 -3 -4 5 5 7
10 10 13 7 9 -8 43 13 42 27 0 9 -2 9 -6 0 -7 -20 -23 -15 -17 5 5 14 4 14 -4
2 -6 -8 -9 -17 -7 -20 2 -3 -5 -6 -16 -6 -18 0 -18 2 -5 12 9 6 16 17 16 24 0
10 -4 9 -17 -1 -16 -13 -17 -12 -4 4 13 16 8 22 -14 17 -5 -1 -4 4 3 11 13 15
17 33 4 25 -5 -3 -9 1 -9 9 0 9 4 11 11 6 7 -6 18 1 30 17 l20 27 -22 -19
c-13 -12 -22 -14 -22 -7 0 7 -4 10 -8 7 -4 -2 -9 4 -9 15 -1 10 2 19 8 19 5 0
8 -3 7 -7 -2 -5 1 -9 7 -11 5 -1 10 8 10 21 1 13 5 29 9 35 4 7 2 12 -3 12 -6
0 -11 -7 -11 -16 0 -14 -3 -14 -15 -4 -11 9 -12 15 -5 20 6 4 18 19 26 35 12
23 12 26 0 16 -11 -9 -15 -9 -18 1 -3 9 -6 9 -12 0 -4 -7 -2 -12 3 -12 6 0 11
-7 11 -15 0 -8 -5 -15 -11 -15 -5 0 -8 4 -4 9 3 5 1 12 -4 15 -5 3 -7 -8 -6
-24 3 -33 -9 -48 -21 -28 -4 6 -2 14 4 16 7 2 9 8 6 13 -3 6 -11 5 -20 -2 -8
-6 -14 -8 -14 -4 0 4 11 16 24 26 15 12 22 26 19 38 -3 10 0 22 5 25 6 3 8 -2
5 -14 -4 -16 -1 -18 17 -15 13 2 25 7 29 11 3 4 -2 4 -11 1 -13 -5 -18 -1 -18
13 0 11 -6 20 -12 20 -7 0 -5 5 5 11 9 6 14 15 11 21 -4 6 -3 8 3 5 11 -7 30
9 33 27 1 5 -4 13 -12 17 -8 5 -9 9 -2 9 6 0 18 -8 25 -17 8 -9 9 -14 2 -10
-10 6 -11 -11 -3 -33 1 -3 2 -9 1 -13 -1 -5 3 -6 9 -2 8 5 8 11 0 20 -12 14
12 41 29 31 11 -7 9 13 -2 32 -10 15 5 16 20 1 8 -8 13 -7 18 2 5 7 4 10 -2 6
-6 -4 -16 0 -23 8 -10 13 -9 15 11 16 17 1 19 3 6 6 -9 2 -15 9 -12 14 4 5 4
9 2 9 -3 0 -14 -16 -26 -36 -12 -19 -17 -33 -12 -29 5 3 12 1 15 -4 3 -5 0
-11 -8 -14 -13 -5 -25 10 -32 41 -1 6 2 12 8 12 6 0 7 -8 4 -17 -5 -15 -4 -15
9 1 18 24 20 40 3 30 -10 -5 -10 -4 -1 6 14 15 34 21 74 23 24 1 26 4 16 24
-5 12 -15 19 -20 16 -8 -5 -7 -8 1 -11 7 -2 12 -8 12 -14 0 -6 -7 -4 -17 3
-19 16 -22 16 -35 -3 -8 -11 -9 -11 -6 0 2 8 7 13 11 12 15 -2 58 52 53 66 -3
7 0 11 7 8 7 -2 14 -14 14 -27 2 -18 0 -19 -8 -7 -9 12 -10 12 -5 -3 4 -12 2
-16 -7 -11 -7 4 -7 1 2 -7 10 -11 15 -11 18 -1 3 6 9 10 14 7 5 -4 6 1 3 9 -4
9 0 18 9 22 9 3 15 19 16 42 2 82 0 76 19 54 12 -14 23 -17 37 -11 20 7 20 8
-1 8 -29 1 -33 8 -20 36 13 29 32 39 42 23 4 -6 3 -8 -3 -5 -6 4 -18 -4 -26
-16 -12 -19 -13 -24 -2 -24 8 0 14 3 13 6 -2 21 5 29 22 26 24 -5 25 1 5 21
-8 8 -11 22 -8 31 5 12 3 14 -7 8 -9 -5 -11 -4 -6 4 6 9 11 9 23 -1 10 -8 12
-13 4 -16 -8 -3 -5 -9 6 -17 19 -14 33 -11 33 8 0 7 -4 6 -10 -3 -5 -8 -10
-13 -11 -10 0 3 -2 13 -4 23 -2 12 1 17 10 13 9 -3 12 0 9 9 -3 8 -13 11 -22
8 -10 -3 -7 3 7 15 26 21 37 22 61 7 13 -8 13 -7 1 8 -7 9 -17 14 -22 11 -5
-3 -9 0 -9 7 0 8 -5 7 -17 -2 -16 -13 -17 -12 -5 2 13 17 47 15 58 -2 3 -5 11
-9 17 -9 7 0 4 5 -5 11 -11 6 -15 16 -11 27 6 14 4 15 -9 4 -10 -8 -19 -9 -22
-3 -4 5 -2 12 4 16 5 3 10 4 10 0 0 -3 9 -1 20 5 11 6 18 15 15 20 -3 6 1 7
11 3 15 -5 15 -7 0 -15 -9 -5 -16 -14 -16 -19 0 -6 7 -3 16 5 8 9 21 16 27 16
7 0 4 5 -6 11 -9 6 -15 15 -11 21 4 6 -2 8 -17 3 -19 -5 -21 -4 -9 4 21 15 43
14 37 -2 -3 -8 1 -14 9 -14 7 0 11 4 8 9 -5 8 9 12 33 9 6 -1 14 3 18 9 4 6
-1 7 -12 3 -16 -6 -16 -5 -4 10 7 9 17 15 21 12 17 -10 19 13 3 26 -14 12 -16
12 -8 0 6 -10 4 -12 -5 -6 -9 6 -11 4 -5 -5 6 -9 4 -11 -5 -5 -9 6 -11 4 -5
-6 7 -11 6 -12 -7 -2 -8 7 -19 9 -23 5 -5 -4 -5 -1 -1 6 4 7 12 9 18 6 7 -5 9
-1 5 9 -4 12 -2 14 10 10 12 -5 14 -3 8 7 -6 9 -1 8 15 -3 18 -12 26 -13 41
-4 11 7 19 19 19 27 0 13 1 13 10 0 8 -13 10 -12 10 3 0 10 5 15 11 12 6 -4 5
2 -2 13 -7 12 -17 18 -22 15 -5 -3 -4 -9 3 -13 18 -11 -11 -19 -35 -9 -14 5
-15 8 -4 8 8 1 20 6 27 13 15 15 42 19 39 6 -1 -6 5 -13 13 -15 13 -4 13 -3 0
6 -8 6 -10 11 -5 11 6 0 2 7 -7 14 -16 12 -15 15 14 36 17 12 28 18 24 11 -4
-6 -2 -11 3 -11 6 0 11 7 11 16 0 8 4 13 8 10 5 -3 8 8 7 25 -1 20 2 28 10 25
8 -3 11 2 8 15 -3 11 0 19 6 19 7 0 9 -5 5 -12 -4 -7 -3 -8 5 -4 9 6 6 14 -11
30 -14 13 -26 18 -30 11 -5 -6 -8 -6 -8 1 0 6 8 18 17 25 9 8 14 9 10 2 -5 -7
0 -9 14 -6 20 6 20 7 -7 19 l-29 12 30 2 c29 1 29 2 7 11 -13 5 -27 7 -32 4
-4 -2 -5 8 -3 23 2 15 4 35 4 45 0 15 3 16 14 7 8 -7 12 -17 8 -24 -12 -18
-12 -35 -1 -43 7 -3 8 -1 4 5 -4 7 -3 12 3 12 5 0 11 -3 14 -7 2 -5 2 -3 1 4
-2 6 2 14 9 17 7 3 1 3 -12 0 -18 -5 -22 -3 -15 7 12 20 14 40 3 33 -5 -3 -12
2 -15 10 -3 9 -14 16 -23 16 -14 0 -14 2 -1 10 9 6 11 10 3 10 -7 0 -10 6 -7
14 3 9 13 12 22 9 9 -4 14 -3 11 1 -4 4 -16 8 -27 11 -15 2 -19 0 -15 -11 3
-8 0 -14 -6 -14 -10 0 -15 14 -12 33 1 5 -3 6 -8 3 -5 -4 -17 4 -25 16 -9 12
-16 18 -16 13 0 -6 -5 -3 -11 5 -9 13 -10 12 -5 -2 6 -20 -30 -36 -46 -20 -8
8 -4 9 10 5 17 -4 21 -1 19 16 -1 12 -5 21 -10 21 -5 0 -6 -8 -3 -17 6 -17 5
-17 -8 0 -7 9 -18 17 -23 17 -14 0 -46 37 -36 42 4 3 3 4 -3 2 -6 -1 -17 2
-23 7 -8 6 -8 5 -1 -3 18 -21 11 -27 -16 -13 -15 7 -33 11 -42 8 -10 -4 -13
-2 -8 6 4 6 4 11 -1 10 -20 -3 -23 2 -13 24 11 21 10 21 -4 3 -9 -10 -13 -23
-10 -27 8 -13 -3 -11 -37 6 -17 10 -27 20 -23 27 5 7 2 9 -7 6 -49 -20 -54
-21 -41 -7 6 7 12 18 12 24 0 5 -5 2 -11 -8 -8 -14 -14 -15 -24 -7 -9 8 -15 8
-20 0 -3 -5 -11 -10 -17 -10 -6 0 -5 7 3 17 8 9 9 14 2 10 -6 -4 -13 -4 -16 0
-2 5 -2 2 0 -6 2 -8 -2 -11 -12 -7 -11 4 -14 2 -9 -6 4 -7 3 -8 -5 -4 -6 4
-19 2 -27 -5 -13 -10 -17 -10 -24 1 -5 8 -7 17 -4 21 2 4 -3 10 -12 13 -10 4
-13 2 -8 -6 4 -7 3 -8 -4 -4 -7 4 -18 4 -24 -1 -19 -11 -39 -13 -32 -2 8 13
-10 11 -24 -3 -9 -9 -12 -9 -12 0 0 7 5 12 11 12 5 0 8 4 5 8 -3 5 1 9 9 9 8
0 15 -5 15 -10 0 -5 8 -3 17 4 14 12 16 12 8 0 -5 -9 -4 -12 3 -7 6 4 8 14 5
23 -4 11 -8 13 -11 5 -2 -7 -8 -12 -13 -12 -6 0 -7 5 -4 10 3 6 1 10 -4 10 -6
0 -11 -4 -11 -8 0 -5 -7 -9 -15 -9 -8 0 -15 4 -15 9 0 4 4 8 8 8 4 0 8 10 9
23 2 20 0 19 -13 -6 -8 -15 -12 -32 -9 -37 10 -16 -13 -21 -28 -6 -8 8 -17 12
-21 9 -3 -4 -6 -1 -6 6 0 14 -31 11 -42 -4 -5 -6 -8 -4 -8 5 0 12 -2 12 -9 1
-6 -9 -11 -10 -15 -2 -4 6 -2 11 4 11 6 0 9 4 5 10 -3 5 -12 7 -19 4 -7 -3
-20 1 -27 8 -20 18 -53 23 -43 6 4 -7 -7 0 -25 15 -28 23 -36 26 -50 15 -14
-12 -14 -11 -3 4 15 18 32 20 44 3 5 -6 8 -3 8 7 0 9 6 18 13 21 6 3 2 4 -10
4 -13 -1 -23 -6 -23 -11 0 -5 -3 -7 -6 -3 -4 3 -20 -1 -36 -9 -17 -9 -28 -11
-24 -6 3 5 -3 17 -13 26 -18 17 -20 16 -30 -1 -6 -10 -11 -13 -11 -8 0 6 5 16
12 23 9 9 9 12 0 12 -6 0 -16 -8 -21 -17 -6 -10 -11 -13 -11 -8 0 6 5 16 11
22 8 8 8 13 0 17 -6 4 -11 2 -11 -3 0 -6 -5 -11 -11 -11 -8 0 -7 5 1 15 7 9
10 19 6 22 -4 4 -11 1 -16 -7 -7 -11 -10 -11 -11 -2 -1 6 -2 17 -3 23 -2 15
-37 39 -48 32 -6 -3 -6 2 0 13 11 21 5 47 -9 39 -5 -4 -6 2 -2 12 6 16 5 17
-12 3 -10 -8 -16 -10 -12 -3 4 6 4 13 0 16 -5 2 -2 2 5 1 11 -3 14 1 16 29 1
6 6 15 11 19 6 5 5 8 -2 8 -22 0 -28 3 -40 19 -8 11 -8 21 -1 35 7 13 7 16 -1
12 -6 -4 -11 -2 -11 3 0 6 -10 11 -22 11 -12 0 -18 -3 -14 -7 4 -5 13 -8 19
-8 7 0 12 -7 12 -15 -1 -8 10 -30 23 -48 13 -18 21 -36 18 -39 -3 -4 -6 0 -6
8 0 12 -2 11 -11 -1 -9 -13 -10 -13 -6 1 3 9 -3 25 -12 36 -10 11 -24 29 -30
41 -7 13 -17 19 -23 16 -7 -4 -8 -3 -4 4 4 7 1 12 -6 12 -10 0 -10 2 1 9 9 6
10 11 2 15 -6 4 -15 5 -20 2 -4 -3 -6 5 -4 17 3 13 -2 29 -10 36 -11 9 -13 20
-7 40 8 28 -7 61 -27 61 -6 0 -8 11 -6 24 4 17 10 23 22 19 14 -4 14 -3 1 6
-20 14 -31 1 -32 -38 -1 -17 -5 -31 -10 -31 -5 0 -6 5 -3 10 3 6 -2 10 -12 10
-17 1 -17 1 0 11 19 11 23 29 6 29 -5 0 -8 -4 -5 -8 3 -5 -1 -9 -9 -9 -10 0
-12 4 -5 12 5 7 6 15 2 19 -4 4 -2 7 3 6 22 -5 36 1 29 11 -5 8 -9 8 -14 -1
-4 -6 -10 -11 -14 -11 -20 3 -26 0 -20 -11 5 -7 3 -8 -5 -4 -9 6 -9 12 3 25 9
10 13 21 9 26 -5 4 -1 6 8 3 11 -4 15 0 14 13 -1 10 -5 22 -10 26 -4 5 -5 3
-2 -3 4 -7 -1 -18 -10 -25 -15 -12 -16 -12 -11 3 8 21 -2 31 -18 17 -8 -7 -19
-7 -30 -1 -15 8 -15 9 0 15 11 5 15 3 10 -5 -4 -7 -3 -8 4 -4 21 13 13 23 -18
23 -16 0 -27 -5 -23 -10 3 -6 1 -7 -5 -3 -6 4 -9 13 -5 21 4 11 0 14 -13 9
-17 -6 -17 -5 1 10 15 14 16 16 3 12 -16 -5 -50 24 -47 40 3 20 -2 34 -12 34
-6 0 -8 -7 -5 -16 3 -9 2 -12 -5 -9 -6 4 -8 13 -5 21 3 8 1 14 -4 14 -6 0 -10
5 -10 11 0 5 5 7 10 4 6 -3 10 1 10 10 0 9 -4 14 -8 11 -5 -3 -14 11 -21 30
-7 19 -17 32 -22 29 -8 -5 -14 16 -10 38 0 4 -4 7 -10 7 -6 0 -8 -9 -4 -21 5
-14 3 -19 -3 -15 -6 3 -14 2 -17 -4 -4 -6 -3 -9 2 -8 12 3 53 -12 54 -20 0 -4
3 -20 5 -37 3 -16 3 -27 1 -25 -3 3 -7 14 -9 25 -3 20 -21 45 -33 45 -3 0 -3
-6 1 -12 4 -7 -2 -5 -14 6 -17 14 -19 23 -11 37 8 15 6 17 -7 12 -13 -5 -15
-3 -9 8 8 12 6 12 -8 0 -18 -15 -23 -26 -7 -16 6 3 10 1 10 -4 0 -14 -2 -14
-35 3 -24 13 -31 13 -49 1 -23 -15 -70 -9 -60 7 3 5 11 5 19 -2 15 -13 41 -4
49 17 9 22 4 23 -17 1z m-117 -121 c0 -4 -6 -2 -14 5 -8 7 -12 17 -9 22 5 8
23 -12 23 -27z m-20 -7 c0 -5 -8 -10 -17 -10 -14 0 -15 -2 -5 -9 10 -6 8 -10
-9 -14 -19 -5 -20 -8 -9 -21 16 -20 4 -21 -15 -2 -12 12 -12 15 2 20 9 4 13
10 9 13 -4 4 4 13 16 20 28 15 28 15 28 3z m505 -170 c-4 -6 -1 -17 5 -25 7
-9 8 -15 2 -15 -12 0 -24 29 -16 41 3 5 7 9 10 9 3 0 2 -5 -1 -10z m-18 -52
c-3 -8 -6 -5 -6 6 -1 11 2 17 5 13 3 -3 4 -12 1 -19z m116 -114 c-3 -8 -9 -14
-15 -14 -5 0 -6 5 -3 10 3 6 2 10 -4 10 -5 0 -11 -5 -13 -12 -3 -8 -7 -6 -11
5 -3 9 -3 16 1 16 22 -4 32 2 26 14 -6 9 -3 8 8 -1 9 -8 14 -20 11 -28z m5
-79 c-3 -3 -9 2 -12 12 -6 14 -5 15 5 6 7 -7 10 -15 7 -18z m-1108 -339 c0 -2
-7 -7 -16 -10 -8 -3 -12 -2 -9 4 6 10 25 14 25 6z m-43 -20 c0 -8 -6 -12 -15
-9 -11 5 -11 7 0 14 7 5 13 9 14 9 0 0 1 -6 1 -14z m-89 -24 c2 -7 -1 -12 -8
-12 -6 0 -8 -6 -4 -12 4 -7 -5 -2 -19 11 -27 25 -38 17 -14 -9 9 -11 8 -11 -7
0 -18 14 -19 13 -13 -2 4 -12 2 -15 -9 -11 -11 4 -12 9 -3 19 6 8 8 14 3 14
-5 0 -3 4 4 9 19 11 65 7 70 -7z m1540 -27 c-3 -3 -9 2 -12 12 -6 14 -5 15 5
6 7 -7 10 -15 7 -18z m-1638 5 c0 -5 -5 -10 -11 -10 -5 0 -7 5 -4 10 3 6 8 10
11 10 2 0 4 -4 4 -10z m-200 -15 c5 3 10 1 10 -4 0 -6 -7 -11 -16 -11 -9 0
-12 -5 -8 -12 4 -7 3 -8 -4 -4 -7 4 -12 2 -12 -5 0 -7 -3 -9 -6 -6 -4 4 -1 14
7 23 12 15 11 16 -11 9 -22 -7 -23 -6 -11 9 10 12 17 13 27 5 7 -6 18 -8 24
-4z m-70 -25 c0 -6 -5 -10 -11 -10 -5 0 -7 5 -4 10 6 9 -8 14 -28 11 -5 -1 -6
3 -2 9 7 12 45 -5 45 -20z m-257 -11 c-6 -6 -9 -19 -6 -28 4 -14 3 -14 -6 -1
-9 13 -11 13 -11 0 0 -12 -2 -12 -9 -1 -6 9 -11 10 -15 2 -4 -6 -12 -11 -17
-11 -14 0 -5 25 9 26 7 1 14 3 17 4 3 1 9 3 14 4 5 0 13 4 17 9 4 4 10 7 13 7
3 0 0 -5 -6 -11z m-90 -25 c-6 -16 -32 -26 -45 -18 -7 5 -5 11 5 19 21 15 46
15 40 -1z m-93 -1 c0 -1 -9 -12 -20 -23 -21 -21 -40 -9 -21 14 9 11 41 18 41
9z m32 -11 c3 -11 0 -19 -8 -19 -16 0 -16 0 -8 21 8 21 11 20 16 -2z m2593
-12 c3 -6 -1 -7 -9 -4 -18 7 -21 14 -7 14 6 0 13 -4 16 -10z m165 -40 c0 -5
-7 -7 -15 -4 -8 4 -15 8 -15 10 0 2 7 4 15 4 8 0 15 -4 15 -10z m159 -18 c8
-14 5 -18 -12 -19 -13 -1 -17 1 -10 5 8 5 9 13 3 22 -8 12 -10 12 -16 -3 -8
-21 -20 -22 -27 -3 -4 10 -1 13 7 10 8 -3 17 0 21 5 8 13 21 6 34 -17z m-75
-1 c4 -5 -3 -7 -14 -4 -23 6 -26 13 -6 13 8 0 17 -4 20 -9z m141 -7 c23 -15
25 -44 3 -44 -6 0 -4 7 3 16 12 15 11 16 -10 9 -19 -6 -23 -4 -18 8 4 11 2 14
-9 10 -7 -3 -14 0 -14 6 0 15 17 14 45 -5z m74 -28 c10 -12 9 -14 -6 -11 -10
2 -22 4 -28 4 -5 1 -3 6 5 11 19 12 15 12 29 -4z m46 -10 c7 3 16 0 20 -5 3
-6 11 -9 16 -6 5 4 20 -2 34 -13 l24 -19 -33 1 c-19 0 -34 3 -34 6 1 19 -4 23
-13 10 -9 -13 -10 -12 -5 3 3 9 1 17 -4 17 -6 0 -10 -4 -10 -8 0 -5 -6 -9 -14
-9 -8 0 -11 8 -8 21 3 11 7 15 9 9 3 -7 10 -10 18 -7z m-3345 -36 c0 -5 -2
-10 -4 -10 -3 0 -8 5 -11 10 -3 6 -1 10 4 10 6 0 11 -4 11 -10z m3529 -46 c11
-10 17 -23 14 -31 -3 -8 -2 -13 3 -12 20 3 35 -2 29 -10 -3 -6 3 -14 12 -20
15 -9 14 -10 -7 -7 -17 2 -24 9 -22 21 2 10 -1 14 -7 10 -6 -3 -14 1 -17 9 -3
9 -10 13 -15 10 -5 -3 -6 2 -3 10 4 11 0 14 -16 11 -18 -3 -20 -2 -10 10 15
19 16 19 39 -1z m-3469 -230 c0 -16 -9 -18 -30 -4 -11 7 -11 10 -2 10 7 0 10
4 7 10 -3 6 1 7 9 4 9 -3 16 -12 16 -20z m3554 -39 c-4 -8 -10 -15 -15 -15 -4
0 -6 7 -3 15 4 8 10 15 15 15 4 0 6 -7 3 -15z m-20 -44 c3 -5 -2 -15 -12 -22
-15 -12 -16 -12 -5 2 7 9 10 19 6 22 -3 4 -4 7 0 7 3 0 8 -4 11 -9z m-3400
-57 c3 -8 2 -12 -4 -9 -6 3 -10 10 -10 16 0 14 7 11 14 -7z m3261 -104 c-9
-14 8 -13 23 2 7 7 12 8 12 2 0 -20 -23 -34 -37 -23 -16 14 -17 29 -2 29 5 0
7 -4 4 -10z m-3165 -82 c0 -5 -4 -8 -8 -8 -5 0 -9 6 -9 13 0 6 -4 21 -7 32 -5
13 -2 12 8 -5 8 -14 15 -28 16 -32z m9 45 c-4 -25 3 -35 21 -30 16 4 18 2 10
-13 -7 -13 -7 -21 0 -25 5 -3 10 -1 10 4 0 6 4 11 8 11 5 0 9 -7 9 -15 0 -8
-4 -12 -8 -9 -4 2 -9 0 -11 -6 -1 -5 -13 5 -25 23 -29 42 -38 67 -24 67 6 0
10 -3 10 -7z m3103 -45 c-7 -7 -16 -7 -28 0 -14 8 -13 10 10 10 18 0 24 -4 18
-10z m-2982 -112 c0 -3 -4 -8 -10 -11 -5 -3 -10 -1 -10 4 0 6 5 11 10 11 6 0
10 -2 10 -4z m2706 -243 c-1 -7 -8 -19 -16 -26 -10 -10 -11 -9 -6 1 4 7 3 18
-3 25 -7 9 -5 13 8 13 10 0 18 -6 17 -13z m-186 -223 c0 -5 -5 -10 -11 -10 -5
0 -7 5 -4 10 3 6 8 10 11 10 2 0 4 -4 4 -10z m-2365 -89 c1 -21 -2 -27 -11
-21 -6 6 -13 8 -15 5 -3 -2 -5 4 -6 15 -1 10 6 21 15 23 9 3 17 5 17 6 0 0 0
-12 0 -28z m2345 -116 c11 -13 10 -14 -4 -9 -9 3 -16 10 -16 15 0 13 6 11 20
-6z m-2360 -178 c0 -7 -4 -6 -10 3 -8 13 -10 12 -10 -2 0 -10 -5 -18 -10 -18
-7 0 -7 7 0 20 11 21 30 19 30 -3z m-29 -89 c-11 -11 -13 -10 -7 0 4 7 2 21
-5 30 -12 15 -11 15 6 0 16 -15 17 -20 6 -30z m-5 -147 c4 -9 8 -25 10 -36 1
-11 0 -14 -2 -7 -8 17 -24 5 -17 -13 3 -8 1 -15 -4 -15 -11 0 -11 45 0 56 4 4
-1 12 -9 19 -15 11 -15 12 -1 12 9 0 19 -7 23 -16z m2434 -25 c0 -3 -4 -8 -10
-11 -5 -3 -10 -1 -10 4 0 6 5 11 10 11 6 0 10 -2 10 -4z m-2440 -66 c0 -5 -2
-10 -4 -10 -3 0 -8 5 -11 10 -3 6 -1 10 4 10 6 0 11 -4 11 -10z m-2 -45 c0
-30 -7 -28 -13 4 -2 11 0 21 4 21 5 0 9 -11 9 -25z m15 -62 c-3 -7 -10 -11
-16 -10 -7 1 -11 -4 -9 -10 1 -7 -3 -13 -9 -13 -5 0 -8 -4 -4 -9 3 -5 1 -12
-4 -15 -5 -4 -12 -2 -15 3 -4 5 -1 13 5 16 5 4 8 14 4 23 -7 18 5 28 33 28 12
0 18 -5 15 -13z m1198 -39 c-7 -12 -11 -14 -11 -5 0 11 -3 11 -15 1 -10 -9
-15 -9 -15 -1 0 10 13 15 33 12 10 -1 9 13 -3 27 -5 7 -3 6 6 -2 13 -11 14
-18 5 -32z m1249 36 c0 -3 -9 -11 -21 -18 -12 -8 -18 -9 -14 -3 3 6 1 11 -5
11 -6 0 -9 4 -5 9 6 10 45 11 45 1z m-1300 -39 c0 -5 -6 -14 -14 -20 -12 -10
-14 -9 -11 6 2 10 4 19 4 21 2 6 21 1 21 -7z m280 -41 c0 -5 -4 -10 -10 -10
-5 0 -10 5 -10 10 0 6 5 10 10 10 6 0 10 -4 10 -10z m150 -30 c13 -8 13 -10 1
-10 -11 0 -10 -4 4 -14 11 -8 24 -12 31 -9 6 2 14 -6 17 -19 5 -20 4 -21 -7
-6 -11 15 -13 15 -25 0 -11 -16 -12 -16 -7 0 3 11 -2 22 -15 28 -11 6 -17 15
-14 20 3 4 -1 11 -7 13 -7 3 -8 6 -3 6 6 0 17 -4 25 -9z m47 -16 c-3 -3 -12
-4 -19 -1 -8 3 -5 6 6 6 11 1 17 -2 13 -5z m68 -34 c3 -5 1 -10 -4 -10 -6 0
-11 5 -11 10 0 6 2 10 4 10 3 0 8 -4 11 -10z m738 -74 c-3 -6 -13 -19 -21 -28
-8 -10 -12 -18 -7 -18 4 0 2 -7 -5 -15 -14 -17 -30 -20 -30 -4 0 5 5 7 10 4 6
-3 10 3 10 14 0 12 4 21 10 21 5 0 7 8 4 18 -5 15 -4 15 6 2 10 -13 11 -11 7
7 -3 15 -1 20 9 16 8 -3 11 -10 7 -17z m-1833 -50 c0 -11 -19 -15 -25 -6 -3 5
1 10 9 10 9 0 16 -2 16 -4z m-156 -47 c-17 -19 -38 -19 -57 1 -9 10 -9 11 1 6
7 -4 12 -2 13 6 0 11 2 11 6 0 4 -10 9 -7 20 8 12 17 17 19 24 9 5 -8 2 -20
-7 -30z m-419 -11 c14 -6 25 -15 25 -20 0 -7 -31 8 -59 29 -10 7 10 2 34 -9z
m2245 1 c0 -5 5 -7 12 -3 7 4 8 3 4 -5 -4 -6 -11 -9 -16 -6 -4 3 -13 -2 -20
-10 -10 -12 -16 -13 -27 -4 -11 10 -10 14 9 24 29 17 38 18 38 4z m-2105 -29
c-3 -5 -12 -10 -18 -10 -7 0 -6 4 3 10 19 12 23 12 15 0z m-35 -8 c0 -13 -12
-22 -22 -16 -10 6 -1 24 13 24 5 0 9 -4 9 -8z"/>
<path d="M2236 4648 c3 -5 10 -6 15 -3 13 9 11 12 -6 12 -8 0 -12 -4 -9 -9z"/>
<path d="M1520 4550 c-9 -6 -10 -10 -3 -10 6 0 15 5 18 10 8 12 4 12 -15 0z"/>
<path d="M4630 4406 c0 -2 7 -7 16 -10 8 -3 12 -2 9 4 -6 10 -25 14 -25 6z"/>
<path d="M2206 2064 c-5 -14 -4 -15 9 -4 17 14 19 20 6 20 -5 0 -12 -7 -15
-16z"/>
<path d="M4019 2033 c-13 -16 -12 -17 4 -4 16 13 21 21 13 21 -2 0 -10 -8 -17
-17z"/>
<path d="M2925 5550 c-3 -5 -1 -10 4 -10 6 0 11 5 11 10 0 6 -2 10 -4 10 -3 0
-8 -4 -11 -10z"/>
<path d="M3250 5531 c0 -6 4 -13 10 -16 6 -3 7 1 4 9 -7 18 -14 21 -14 7z"/>
<path d="M3265 5490 c-3 -6 1 -7 9 -4 18 7 21 14 7 14 -6 0 -13 -4 -16 -10z"/>
<path d="M2845 5470 c-3 -6 1 -7 9 -4 18 7 21 14 7 14 -6 0 -13 -4 -16 -10z"/>
<path d="M3266 5461 c-15 -16 -15 -19 -2 -24 9 -4 18 -1 22 5 4 7 3 8 -4 4 -7
-4 -12 -3 -12 2 0 17 13 22 29 9 14 -11 14 -10 2 6 -16 21 -14 21 -35 -2z"/>
<path d="M2815 5450 c-3 -5 -3 -10 2 -10 4 0 1 -5 -7 -11 -12 -8 -12 -10 -1
-7 8 2 15 12 17 21 3 19 -2 22 -11 7z"/>
<path d="M3293 5428 c-21 -34 -9 -62 27 -63 8 0 15 -5 15 -12 0 -24 22 -36 42
-24 16 11 16 11 -4 6 -22 -6 -29 6 -24 38 1 5 -4 5 -10 1 -9 -5 -10 -2 -5 11
6 16 4 16 -10 4 -15 -12 -16 -11 -11 11 4 14 4 19 1 12 -3 -6 -10 -9 -15 -6
-6 3 -5 11 2 20 6 8 9 14 6 14 -3 0 -9 -6 -14 -12z m11 -44 c3 -8 2 -12 -4 -9
-6 3 -10 10 -10 16 0 14 7 11 14 -7z"/>
<path d="M3333 5425 c0 -8 4 -12 9 -9 5 3 6 10 3 15 -9 13 -12 11 -12 -6z"/>
<path d="M2750 5335 c0 -5 5 -17 10 -25 5 -8 10 -10 10 -5 0 6 -5 17 -10 25
-5 8 -10 11 -10 5z"/>
<path d="M2740 5265 c0 -8 2 -15 4 -15 2 0 6 7 10 15 3 8 1 15 -4 15 -6 0 -10
-7 -10 -15z"/>
<path d="M2705 5250 c-3 -6 1 -7 9 -4 18 7 21 14 7 14 -6 0 -13 -4 -16 -10z"/>
<path d="M2670 5209 c0 -5 5 -7 10 -4 6 3 10 8 10 11 0 2 -4 4 -10 4 -5 0 -10
-5 -10 -11z"/>
<path d="M2610 5130 c-9 -6 -10 -10 -3 -10 6 0 15 5 18 10 8 12 4 12 -15 0z"/>
<path d="M3526 5113 c-6 -14 -5 -15 5 -6 7 7 10 15 7 18 -3 3 -9 -2 -12 -12z"/>
<path d="M3527 5086 c-18 -14 -18 -15 0 -28 10 -7 18 -19 18 -27 0 -7 11 -21
25 -29 18 -11 21 -12 13 -2 -7 8 -13 22 -13 32 0 10 -5 18 -11 18 -5 0 -8 4
-4 9 3 5 1 12 -5 16 -6 4 -8 11 -5 16 8 12 3 11 -18 -5z m18 -16 c3 -5 1 -10
-4 -10 -6 0 -11 5 -11 10 0 6 2 10 4 10 3 0 8 -4 11 -10z"/>
<path d="M2570 5070 c-9 -6 -10 -10 -3 -10 6 0 15 5 18 10 8 12 4 12 -15 0z"/>
<path d="M2515 5041 c-3 -5 -2 -12 3 -15 5 -3 9 1 9 9 0 17 -3 19 -12 6z"/>
<path d="M2554 5026 c16 -13 17 -18 6 -31 -7 -8 -8 -15 -3 -15 5 0 15 12 22
28 7 15 10 24 6 20 -4 -4 -17 -3 -29 3 -20 10 -20 9 -2 -5z"/>
<path d="M3593 5025 c0 -8 4 -12 9 -9 5 3 6 10 3 15 -9 13 -12 11 -12 -6z"/>
<path d="M2453 4925 c0 -8 4 -12 9 -9 5 3 6 10 3 15 -9 13 -12 11 -12 -6z"/>
<path d="M2435 4870 c-3 -5 -1 -10 4 -10 6 0 11 5 11 10 0 6 -2 10 -4 10 -3 0
-8 -4 -11 -10z"/>
<path d="M3667 4854 c-3 -4 0 -19 8 -34 8 -15 11 -30 8 -34 -3 -3 6 -15 21
-27 14 -11 23 -25 20 -31 -4 -6 -2 -8 4 -5 13 9 44 -2 37 -14 -3 -4 5 -13 17
-20 12 -7 30 -21 39 -33 14 -17 19 -18 33 -7 9 7 16 19 16 25 0 6 -5 4 -10 -4
-8 -12 -10 -12 -10 -1 0 11 -3 11 -16 0 -15 -12 -16 -11 -11 11 4 14 4 19 1
11 -5 -10 -10 -8 -20 10 -7 13 -13 18 -14 12 0 -7 -4 -13 -10 -13 -6 0 -9 3
-9 8 3 18 -2 33 -9 28 -11 -7 -45 52 -37 64 4 6 11 7 17 4 7 -4 8 -2 4 5 -4 6
-13 8 -19 4 -20 -12 -38 -12 -34 0 3 7 10 11 16 9 7 -1 10 2 6 8 -5 8 -12 7
-22 -2 -14 -11 -15 -10 -9 10 7 21 -3 30 -17 16z m57 -89 l18 -30 -25 25 c-13
14 -22 29 -20 33 3 5 6 7 7 5 1 -2 10 -16 20 -33z"/>
<path d="M2396 4813 c-6 -14 -5 -15 5 -6 7 7 10 15 7 18 -3 3 -9 -2 -12 -12z"/>
<path d="M2336 4767 c3 -10 9 -15 12 -12 3 3 0 11 -7 18 -10 9 -11 8 -5 -6z"/>
<path d="M3750 4770 c0 -5 5 -10 11 -10 5 0 7 5 4 10 -3 6 -8 10 -11 10 -2 0
-4 -4 -4 -10z"/>
<path d="M2306 4752 c-3 -5 1 -9 9 -9 8 0 12 4 9 9 -3 4 -7 8 -9 8 -2 0 -6 -4
-9 -8z"/>
<path d="M3810 4731 c0 -6 4 -13 10 -16 6 -3 7 1 4 9 -7 18 -14 21 -14 7z"/>
<path d="M2110 4675 c-7 -9 -11 -17 -9 -20 3 -2 10 5 17 15 14 24 10 26 -8 5z"/>
<path d="M1875 4669 c-3 -4 2 -6 10 -5 21 3 28 13 10 13 -9 0 -18 -4 -20 -8z"/>
<path d="M2015 4650 c3 -5 8 -10 11 -10 2 0 4 5 4 10 0 6 -5 10 -11 10 -5 0
-7 -4 -4 -10z"/>
<path d="M3951 4641 c-10 -7 -11 -13 -2 -27 6 -11 11 -15 11 -10 0 5 9 1 19
-8 11 -10 24 -15 29 -12 5 3 15 -1 21 -8 7 -8 23 -13 35 -10 14 2 35 -5 52
-18 16 -12 23 -15 17 -7 -7 9 -9 19 -5 23 4 4 3 7 -3 6 -5 -1 -20 1 -32 5 -12
4 -26 7 -30 7 -4 0 -14 9 -21 21 -13 22 -13 21 -6 -3 6 -22 5 -23 -9 -11 -9 7
-14 18 -10 24 3 5 1 7 -4 4 -6 -4 -14 1 -17 10 -5 12 -9 14 -18 5 -17 -17 -33
-15 -18 3 14 17 11 19 -9 6z m53 -50 c-7 -7 -34 21 -28 31 3 5 12 1 19 -9 7
-10 12 -20 9 -22z"/>
<path d="M1696 4623 c-6 -14 -5 -15 5 -6 7 7 10 15 7 18 -3 3 -9 -2 -12 -12z"/>
<path d="M1760 4630 c0 -5 5 -10 11 -10 5 0 7 5 4 10 -3 6 -8 10 -11 10 -2 0
-4 -4 -4 -10z"/>
<path d="M3917 4626 c-3 -8 -2 -18 3 -21 13 -8 20 9 11 24 -6 10 -10 9 -14 -3z"/>
<path d="M1740 4615 c0 -20 17 -38 24 -26 4 6 11 9 15 7 11 -7 36 12 28 21 -5
4 -11 3 -15 -2 -11 -16 -34 -17 -43 -3 -5 7 -9 9 -9 3z"/>
<path d="M4055 4610 c3 -5 8 -10 11 -10 2 0 4 5 4 10 0 6 -5 10 -11 10 -5 0
-7 -4 -4 -10z"/>
<path d="M1390 4595 c0 -5 5 -17 10 -25 5 -8 10 -10 10 -5 0 6 -5 17 -10 25
-5 8 -10 11 -10 5z"/>
<path d="M1667 4587 c-3 -9 5 -13 26 -12 17 0 32 6 35 13 5 16 -25 16 -31 0
-4 -10 -6 -10 -6 0 -1 16 -17 16 -24 -1z"/>
<path d="M4125 4590 c-16 -7 -17 -9 -3 -9 9 -1 20 4 23 9 7 11 7 11 -20 0z"/>
<path d="M4234 4566 c1 -8 5 -18 8 -22 4 -3 5 1 4 10 -1 8 -5 18 -8 22 -4 3
-5 -1 -4 -10z"/>
<path d="M4314 4553 c7 -13 0 -16 -39 -15 -17 1 -18 0 -2 -4 14 -4 15 -9 7
-19 -8 -9 -8 -15 0 -20 5 -3 10 1 10 10 0 10 5 13 12 9 7 -5 8 -3 3 6 -6 10
-4 12 7 7 17 -6 19 16 3 30 -4 4 -5 2 -1 -4z"/>
<path d="M4350 4550 c0 -5 5 -10 11 -10 5 0 7 5 4 10 -3 6 -8 10 -11 10 -2 0
-4 -4 -4 -10z"/>
<path d="M1275 4520 c3 -5 8 -10 11 -10 2 0 4 5 4 10 0 6 -5 10 -11 10 -5 0
-7 -4 -4 -10z"/>
<path d="M1273 4481 c0 -11 5 -18 9 -15 4 3 5 11 1 19 -7 21 -12 19 -10 -4z"/>
<path d="M4675 4450 c-3 -5 -1 -10 4 -10 6 0 11 5 11 10 0 6 -2 10 -4 10 -3 0
-8 -4 -11 -10z"/>
<path d="M4749 4413 c-13 -16 -12 -17 4 -4 9 7 17 15 17 17 0 8 -8 3 -21 -13z"/>
<path d="M1194 4385 c-1 -14 1 -25 5 -25 4 0 7 -9 8 -19 1 -14 -3 -18 -15 -14
-13 4 -14 3 -4 -5 8 -5 13 -12 13 -16 -1 -3 2 -6 7 -5 4 1 6 5 5 10 -2 5 2 9
8 9 8 0 8 4 0 13 -6 8 -7 17 -1 23 5 5 2 18 -8 31 l-17 23 -1 -25z"/>
<path d="M4787 4369 c7 -7 15 -10 18 -7 3 3 -2 9 -12 12 -14 6 -15 5 -6 -5z"/>
<path d="M1150 4316 c0 -2 7 -7 16 -10 8 -3 12 -2 9 4 -6 10 -25 14 -25 6z"/>
<path d="M4870 4291 c0 -6 4 -13 10 -16 6 -3 7 1 4 9 -7 18 -14 21 -14 7z"/>
<path d="M1195 4270 c-17 -6 -16 -7 6 -13 17 -5 20 -9 11 -15 -10 -7 -8 -14 8
-33 18 -20 19 -21 11 -3 -10 22 -10 42 1 60 8 12 -9 14 -37 4z"/>
<path d="M1206 4187 c3 -10 9 -15 12 -12 3 3 0 11 -7 18 -10 9 -11 8 -5 -6z"/>
<path d="M4914 4156 c1 -8 5 -18 8 -22 4 -3 5 1 4 10 -1 8 -5 18 -8 22 -4 3
-5 -1 -4 -10z"/>
<path d="M1215 4150 c-3 -6 1 -7 9 -4 18 7 21 14 7 14 -6 0 -13 -4 -16 -10z"/>
<path d="M4870 4113 c0 -1 8 -7 18 -12 14 -7 19 -6 19 4 0 7 -9 13 -19 12 -10
-1 -18 -2 -18 -4z"/>
<path d="M4882 4030 c-15 -25 -15 -30 0 -30 6 0 8 3 5 7 -4 3 -2 12 5 20 6 7
9 15 7 18 -3 2 -10 -5 -17 -15z"/>
<path d="M4916 4028 c3 -5 10 -6 15 -3 13 9 11 12 -6 12 -8 0 -12 -4 -9 -9z"/>
<path d="M1315 4010 c3 -5 8 -10 11 -10 2 0 4 5 4 10 0 6 -5 10 -11 10 -5 0
-7 -4 -4 -10z"/>
<path d="M1387 3994 c-3 -3 -3 -13 0 -22 5 -11 3 -13 -7 -7 -8 5 -11 4 -6 -3
4 -6 12 -9 19 -6 7 2 19 -7 27 -21 7 -14 16 -23 18 -20 7 7 31 -29 25 -38 -3
-5 -11 0 -19 10 -7 10 -14 13 -14 7 0 -18 27 -37 35 -24 3 6 12 7 18 3 6 -4 2
6 -11 21 -12 16 -19 32 -16 37 3 5 -2 6 -10 3 -13 -5 -40 26 -41 48 0 11 -11
18 -18 12z"/>
<path d="M4873 3975 c0 -8 4 -12 9 -9 5 3 6 10 3 15 -9 13 -12 11 -12 -6z"/>
<path d="M4803 3958 c-8 -9 -7 -16 2 -25 10 -10 15 -9 19 4 9 22 -8 37 -21 21z"/>
<path d="M1394 3926 c1 -8 5 -18 8 -22 4 -3 5 1 4 10 -1 8 -5 18 -8 22 -4 3
-5 -1 -4 -10z"/>
<path d="M1356 3917 c3 -10 9 -15 12 -12 3 3 0 11 -7 18 -10 9 -11 8 -5 -6z"/>
<path d="M4826 3913 c-6 -14 -5 -15 5 -6 7 7 10 15 7 18 -3 3 -9 -2 -12 -12z"/>
<path d="M4710 3789 c0 -5 5 -7 10 -4 6 3 10 8 10 11 0 2 -4 4 -10 4 -5 0 -10
-5 -10 -11z"/>
<path d="M4650 3729 c0 -5 5 -7 10 -4 6 3 10 8 10 11 0 2 -4 4 -10 4 -5 0 -10
-5 -10 -11z"/>
<path d="M1556 3709 c3 -5 9 -7 14 -4 4 3 11 0 13 -5 3 -6 4 -5 3 1 -1 7 -10
13 -19 15 -9 1 -15 -2 -11 -7z"/>
<path d="M4615 3710 c-3 -6 1 -7 9 -4 18 7 21 14 7 14 -6 0 -13 -4 -16 -10z"/>
<path d="M4581 3687 c2 -1 13 -9 24 -17 19 -14 19 -14 6 3 -7 9 -18 17 -24 17
-6 0 -8 -1 -6 -3z"/>
<path d="M1667 3643 c-10 -16 11 -39 23 -27 8 8 7 14 -4 23 -8 7 -17 8 -19 4z"/>
<path d="M4515 3641 c-6 -11 23 -36 32 -27 3 3 0 6 -8 6 -11 0 -12 2 -1 9 11
7 11 9 -2 14 -8 3 -18 2 -21 -2z"/>
<path d="M1633 3625 c0 -8 6 -16 13 -19 7 -3 10 2 7 15 -6 22 -20 26 -20 4z"/>
<path d="M1702 3584 c-7 -8 -10 -14 -6 -14 3 0 1 -6 -5 -13 -8 -10 -7 -14 4
-14 8 0 12 4 9 9 -3 4 2 8 10 8 18 0 21 -16 6 -25 -13 -8 -3 -25 13 -25 8 0 8
3 -2 9 -7 5 -9 11 -4 14 7 4 48 -18 48 -27 0 -2 -6 -10 -13 -19 -10 -12 -10
-17 -1 -23 8 -5 9 -3 4 6 -5 8 -3 11 6 8 8 -3 15 -10 15 -16 1 -7 2 -20 3 -29
1 -16 3 -16 11 -3 8 13 10 12 10 -2 0 -10 -5 -18 -12 -18 -6 0 -1 -9 12 -20
34 -29 60 -27 32 3 -18 19 -19 26 -9 37 6 7 7 10 2 7 -6 -3 -19 1 -30 9 -12 9
-14 14 -5 14 9 0 8 4 -5 13 -10 8 -15 19 -11 25 3 6 -4 18 -16 26 -12 9 -29
29 -38 45 -13 25 -17 27 -28 15z m129 -191 c13 -16 12 -17 -3 -4 -17 13 -22
21 -14 21 2 0 10 -8 17 -17z"/>
<path d="M4536 3588 c3 -5 10 -6 15 -3 13 9 11 12 -6 12 -8 0 -12 -4 -9 -9z"/>
<path d="M4460 3526 c0 -2 7 -7 16 -10 8 -3 12 -2 9 4 -6 10 -25 14 -25 6z"/>
<path d="M1730 3489 c0 -5 5 -7 10 -4 6 3 10 8 10 11 0 2 -4 4 -10 4 -5 0 -10
-5 -10 -11z"/>
<path d="M4397 3475 c-4 -8 -3 -16 1 -19 4 -3 9 4 9 15 2 23 -3 25 -10 4z"/>
<path d="M4410 3440 c-8 -5 -12 -12 -9 -15 4 -3 12 1 19 10 14 17 11 19 -10 5z"/>
<path d="M4355 3349 c-4 -6 -5 -12 -2 -15 2 -3 7 2 10 11 7 17 1 20 -8 4z"/>
<path d="M1781 3304 c0 -11 3 -14 6 -6 3 7 2 16 -1 19 -3 4 -6 -2 -5 -13z"/>
<path d="M4290 3311 c0 -5 7 -12 16 -15 14 -5 15 -4 4 9 -14 17 -20 19 -20 6z"/>
<path d="M1755 3241 c-3 -5 -2 -12 3 -15 5 -3 9 1 9 9 0 17 -3 19 -12 6z"/>
<path d="M1790 3207 c-16 -12 -20 -31 -9 -41 10 -10 39 28 31 41 -5 8 -11 8
-22 0z m20 -11 c0 -2 -7 -9 -15 -16 -13 -11 -14 -10 -9 4 5 14 24 23 24 12z"/>
<path d="M4245 3190 c3 -5 8 -10 11 -10 2 0 4 5 4 10 0 6 -5 10 -11 10 -5 0
-7 -4 -4 -10z"/>
<path d="M4195 3180 c-3 -5 -3 -14 0 -20 4 -6 -1 -7 -11 -3 -12 4 -15 3 -10
-5 13 -21 34 -13 34 13 0 27 -3 31 -13 15z"/>
<path d="M4215 3130 c-3 -5 -1 -10 4 -10 6 0 11 5 11 10 0 6 -2 10 -4 10 -3 0
-8 -4 -11 -10z"/>
<path d="M1746 3112 c-3 -5 1 -9 9 -9 8 0 15 4 15 9 0 4 -4 8 -9 8 -6 0 -12
-4 -15 -8z"/>
<path d="M1770 3082 c0 -15 11 -21 27 -15 12 5 12 7 1 14 -17 11 -28 11 -28 1z"/>
<path d="M1741 3034 c0 -11 3 -14 6 -6 3 7 2 16 -1 19 -3 4 -6 -2 -5 -13z"/>
<path d="M4206 2992 c-3 -5 1 -9 9 -9 8 0 12 4 9 9 -3 4 -7 8 -9 8 -2 0 -6 -4
-9 -8z"/>
<path d="M1735 2979 c-4 -6 -5 -12 -2 -15 2 -3 7 2 10 11 7 17 1 20 -8 4z"/>
<path d="M4186 2918 c-16 -22 -6 -48 18 -48 7 0 7 3 1 8 -5 4 -11 16 -13 27
-2 18 0 17 19 -5 l21 -25 -16 27 c-12 20 -12 28 -3 31 9 4 9 6 0 6 -6 1 -19
-9 -27 -21z"/>
<path d="M1751 2881 c-10 -6 -9 -10 3 -14 8 -3 18 -2 21 3 8 13 -9 20 -24 11z"/>
<path d="M1730 2809 c0 -5 5 -7 10 -4 6 3 10 8 10 11 0 2 -4 4 -10 4 -5 0 -10
-5 -10 -11z"/>
<path d="M4233 2799 c-2 -23 3 -25 10 -4 4 8 3 16 -1 19 -4 3 -9 -4 -9 -15z"/>
<path d="M4199 2798 c-4 -12 -6 -54 -2 -60 6 -12 30 2 30 17 0 8 -5 12 -10 8
-5 -3 -6 3 -2 16 4 12 2 21 -4 21 -6 0 -11 -1 -12 -2z"/>
<path d="M4250 2751 c0 -6 4 -13 10 -16 6 -3 7 1 4 9 -7 18 -14 21 -14 7z"/>
<path d="M4220 2726 c0 -2 7 -7 16 -10 8 -3 12 -2 9 4 -6 10 -25 14 -25 6z"/>
<path d="M1750 2641 c0 -5 7 -11 15 -15 8 -3 15 -1 15 3 0 5 -7 11 -15 15 -8
3 -15 1 -15 -3z"/>
<path d="M4232 2521 c-11 -7 -11 -9 0 -14 9 -3 15 1 15 9 0 8 -1 14 -1 14 -1
0 -7 -4 -14 -9z"/>
<path d="M4215 2490 c3 -5 11 -10 16 -10 6 0 7 5 4 10 -3 6 -11 10 -16 10 -6
0 -7 -4 -4 -10z"/>
<path d="M4250 2370 c0 -5 5 -10 11 -10 5 0 7 5 4 10 -3 6 -8 10 -11 10 -2 0
-4 -4 -4 -10z"/>
<path d="M3044 2343 c19 -23 32 -31 21 -13 -3 6 -1 10 4 10 6 0 11 5 11 11 0
8 -4 8 -13 0 -10 -8 -17 -7 -27 2 -8 6 -6 2 4 -10z"/>
<path d="M1676 2312 c-3 -5 1 -9 9 -9 8 0 12 4 9 9 -3 4 -7 8 -9 8 -2 0 -6 -4
-9 -8z"/>
<path d="M1717 2314 c-3 -5 1 -15 9 -22 16 -14 18 -5 5 17 -5 7 -11 9 -14 5z"/>
<path d="M3025 2310 c-3 -6 1 -7 9 -4 18 7 21 14 7 14 -6 0 -13 -4 -16 -10z"/>
<path d="M3233 2268 c1 -16 5 -28 9 -28 10 0 9 9 -2 35 -8 17 -8 16 -7 -7z"/>
<path d="M4236 2266 c-16 -7 -25 -16 -20 -19 5 -3 21 3 34 14 29 21 26 22 -14
5z"/>
<path d="M1655 2250 c3 -5 8 -10 11 -10 2 0 4 5 4 10 0 6 -5 10 -11 10 -5 0
-7 -4 -4 -10z"/>
<path d="M2855 2250 c3 -5 8 -10 11 -10 2 0 4 5 4 10 0 6 -5 10 -11 10 -5 0
-7 -4 -4 -10z"/>
<path d="M2766 2228 c3 -5 10 -6 15 -3 13 9 11 12 -6 12 -8 0 -12 -4 -9 -9z"/>
<path d="M2600 2205 c-7 -8 -16 -12 -21 -9 -5 3 -9 0 -9 -6 0 -6 -4 -9 -9 -5
-6 3 -15 -3 -20 -14 -14 -25 -14 -31 1 -31 6 0 8 3 5 7 -4 3 2 12 13 20 15 11
24 11 41 3 11 -7 23 -9 26 -7 2 3 -5 8 -16 12 -23 7 -19 25 5 25 9 0 12 -5 8
-12 -4 -7 -3 -8 5 -4 9 6 9 11 0 22 -14 17 -14 17 -29 -1z"/>
<path d="M2715 2200 c-4 -6 -11 -7 -17 -4 -7 4 -8 2 -4 -5 6 -9 11 -9 22 0 14
11 18 19 10 19 -3 0 -8 -5 -11 -10z"/>
<path d="M3386 2192 c-3 -5 1 -9 9 -9 8 0 12 4 9 9 -3 4 -7 8 -9 8 -2 0 -6 -4
-9 -8z"/>
<path d="M3460 2188 c0 -4 7 -8 15 -8 8 0 15 4 15 8 0 5 -7 9 -15 9 -8 0 -15
-4 -15 -9z"/>
<path d="M3502 2179 c-10 -16 -10 -19 -1 -13 8 5 11 2 7 -7 -4 -10 1 -15 12
-15 10 0 16 6 13 13 -3 7 -9 13 -15 13 -5 0 -6 5 -3 11 5 6 11 4 19 -7 9 -11
15 -13 20 -6 3 6 -2 16 -13 21 -25 14 -24 14 -39 -10z"/>
<path d="M3435 2170 c-3 -5 -1 -10 4 -10 6 0 11 5 11 10 0 6 -2 10 -4 10 -3 0
-8 -4 -11 -10z"/>
<path d="M2495 2159 c-4 -5 -14 -8 -22 -4 -9 3 -25 -2 -35 -12 -15 -14 -21
-15 -27 -4 -6 9 -11 10 -15 2 -4 -6 -1 -11 6 -11 10 0 10 -2 -1 -9 -9 -6 -10
-11 -2 -15 6 -4 11 -2 11 3 0 6 5 11 11 11 5 0 7 -5 3 -11 -3 -6 5 -4 18 5 14
9 28 13 33 9 4 -5 5 -2 0 6 -5 9 -3 12 6 9 8 -3 13 -14 11 -24 -2 -15 -1 -16
7 -4 6 9 6 18 0 26 -6 8 -6 14 0 18 5 3 12 0 14 -6 4 -9 6 -10 6 -1 1 17 -16
26 -24 12z m-26 -12 c-2 -1 -13 -9 -24 -17 -19 -14 -19 -14 -6 3 7 9 18 17 24
17 6 0 8 -1 6 -3z"/>
<path d="M1688 2153 c6 -2 9 -10 6 -15 -4 -7 -2 -8 4 -4 7 4 12 2 12 -4 0 -7
5 -10 11 -8 13 4 13 23 0 23 -5 0 -13 3 -17 8 -4 4 -12 7 -18 6 -6 0 -5 -3 2
-6z"/>
<path d="M2570 2149 c0 -5 5 -7 10 -4 6 3 10 8 10 11 0 2 -4 4 -10 4 -5 0 -10
-5 -10 -11z"/>
<path d="M3617 2111 c-4 -17 -3 -21 5 -13 5 5 8 16 6 23 -3 8 -7 3 -11 -10z"/>
<path d="M3660 2115 c-8 -9 -8 -15 -2 -15 6 0 12 6 14 12 4 10 9 8 21 -3 9 -9
13 -20 9 -23 -3 -4 1 -4 11 0 9 3 17 10 17 14 0 5 10 6 21 3 21 -6 21 -7 -5
-20 -30 -16 -32 -20 -11 -20 8 0 15 4 15 9 0 10 53 6 61 -5 3 -4 14 -9 23 -11
17 -2 23 -21 7 -21 -5 0 -12 -2 -15 -5 -3 -4 5 -6 19 -6 13 0 21 4 19 8 -8 12
11 9 24 -4 9 -9 12 -9 12 -1 0 7 -10 15 -21 18 -13 4 -17 10 -11 14 6 4 8 11
4 17 -8 11 -27 12 -37 2 -4 -3 -21 2 -39 13 -17 10 -43 21 -56 23 -14 2 -25 5
-25 6 0 1 -10 3 -21 6 -12 2 -27 -3 -34 -11z m194 -43 c3 -5 -1 -9 -9 -9 -8 0
-12 4 -9 9 3 4 7 8 9 8 2 0 6 -4 9 -8z"/>
<path d="M4210 2110 c0 -5 5 -10 10 -10 6 0 10 5 10 10 0 6 -4 10 -10 10 -5 0
-10 -4 -10 -10z"/>
<path d="M1696 2101 c-4 -5 4 -7 15 -4 16 5 20 2 17 -8 -3 -8 -11 -13 -17 -11
-7 1 -9 -3 -6 -9 5 -8 10 -8 18 0 6 6 16 11 21 11 6 0 5 -5 -2 -12 -7 -7 -12
-17 -12 -22 0 -6 7 -2 15 8 13 17 13 22 -2 38 -17 19 -38 23 -47 9z"/>
<path d="M2767 2054 c-1 -1 -47 -5 -102 -8 -108 -7 -151 -11 -330 -33 -33 -4
-79 -7 -102 -7 -22 -1 -39 -4 -37 -7 5 -8 -58 -18 -70 -12 -4 3 -2 10 5 15 11
8 11 9 -1 5 -8 -2 -14 -10 -12 -16 1 -6 -6 -11 -15 -12 -10 0 -28 -2 -40 -5
-17 -3 -20 0 -16 16 3 11 0 20 -6 20 -5 0 -8 -6 -5 -13 7 -19 -17 -37 -55 -42
-17 -2 -36 -7 -43 -11 -9 -5 -8 -1 2 12 14 18 14 18 -5 2 -24 -19 -101 -42
-115 -33 -6 3 -10 2 -10 -3 0 -5 -26 -15 -57 -22 -60 -13 -86 -20 -268 -77
-103 -33 -303 -105 -388 -140 -33 -14 -39 -23 -56 -78 -41 -133 -60 -290 -55
-450 4 -109 10 -171 19 -184 2 -4 7 -51 11 -105 3 -54 15 -120 25 -149 11 -28
19 -62 19 -74 0 -29 26 -30 78 -4 30 15 128 51 152 56 26 6 160 52 245 86 59
22 121 43 138 44 18 2 44 8 58 13 19 8 30 7 39 -1 7 -7 10 -7 7 -2 -4 7 30 16
91 24 53 7 133 21 177 31 44 10 103 21 130 26 28 4 55 8 60 9 14 3 173 24 220
30 185 21 666 27 876 12 99 -7 340 -34 384 -42 11 -3 36 -7 55 -10 106 -16
446 -88 455 -96 5 -5 24 -9 42 -9 44 0 133 -20 133 -30 0 -4 -17 -4 -37 1 -81
20 -93 21 -118 15 -15 -4 -25 -13 -25 -24 0 -10 -4 -22 -9 -28 -5 -5 -12 -24
-16 -42 -8 -38 -19 -35 150 -37 107 -1 187 -6 295 -20 19 -2 80 -7 135 -10
l100 -7 -30 19 c-16 10 -48 26 -70 35 -38 16 -247 69 -327 84 -21 3 -38 10
-38 16 0 5 3 7 8 5 4 -3 23 -8 42 -11 75 -12 96 -17 130 -28 41 -14 38 -13
110 -27 30 -6 83 -25 117 -41 73 -35 77 -36 70 -10 -3 12 -1 17 5 14 5 -3 8 0
7 7 -3 18 13 170 25 234 7 38 17 121 20 160 1 17 -3 33 -8 37 -7 5 -7 8 -1 8
12 0 9 126 -5 275 -14 135 -18 163 -39 231 l-17 58 -119 42 c-66 24 -167 57
-225 74 -58 18 -116 35 -130 40 -54 17 -139 39 -217 56 -46 10 -83 21 -83 24
0 4 -10 6 -22 5 -13 -1 -38 2 -57 7 -18 5 -41 11 -50 13 -9 2 -36 8 -61 14
-25 6 -60 11 -78 11 -18 0 -31 3 -29 8 3 4 -9 7 -26 8 -30 0 -144 13 -177 19
-8 1 -49 6 -90 10 -41 3 -86 8 -100 10 -77 12 -633 28 -643 19z"/>
<path d="M2250 2041 c0 -6 4 -13 10 -16 6 -3 7 1 4 9 -7 18 -14 21 -14 7z"/>
<path d="M3965 2040 c-4 -6 -11 -8 -16 -5 -5 4 -9 1 -9 -4 0 -17 27 -13 34 4
6 17 0 20 -9 5z"/>
<path d="M4115 2039 c-4 -6 -4 -13 -1 -16 3 -4 6 -1 6 6 0 7 5 9 12 5 7 -4 8
-3 4 4 -9 15 -13 15 -21 1z"/>
<path d="M3915 2021 c-3 -5 -2 -12 3 -15 5 -3 9 1 9 9 0 17 -3 19 -12 6z"/>
<path d="M1755 2010 c3 -5 8 -10 11 -10 2 0 4 5 4 10 0 6 -5 10 -11 10 -5 0
-7 -4 -4 -10z"/>
<path d="M4120 2010 c-9 -6 -10 -10 -3 -10 6 0 15 5 18 10 8 12 4 12 -15 0z"/>
<path d="M1996 1988 c3 -4 9 -8 15 -8 5 0 9 4 9 8 0 5 -7 9 -15 9 -8 0 -12 -4
-9 -9z"/>
<path d="M1855 1950 c3 -5 8 -10 11 -10 2 0 4 5 4 10 0 6 -5 10 -11 10 -5 0
-7 -4 -4 -10z"/>
<path d="M4958 1142 c2 -26 -4 -102 -13 -167 -9 -66 -18 -133 -21 -150 -2 -16
-6 -57 -10 -90 -3 -33 -12 -74 -19 -92 l-13 -31 -69 4 c-37 3 -84 7 -103 9
-19 3 -73 7 -119 9 -46 3 -85 7 -88 10 -3 2 -11 2 -18 0 -7 -3 -15 -2 -18 3
-3 4 -34 7 -69 5 -34 -1 -74 -2 -88 -2 -14 0 -20 -3 -15 -9 17 -15 84 -33 97
-25 7 4 10 4 6 -1 -5 -5 18 -18 50 -31 125 -48 388 -146 397 -148 6 -1 15 -4
20 -7 9 -6 84 -32 95 -34 3 0 14 -6 25 -12 16 -8 109 -42 135 -48 10 -3 45
-17 80 -33 19 -8 47 -16 61 -16 15 -1 25 -4 23 -8 -2 -4 6 -9 18 -13 13 -3 32
-10 43 -15 55 -25 154 -58 159 -53 3 4 6 2 6 -4 0 -6 11 -13 24 -15 l24 -5
-26 41 c-15 23 -31 44 -37 48 -5 4 -6 8 -1 8 5 0 3 8 -6 18 -8 9 -20 28 -26
42 -7 14 -23 43 -37 65 -14 22 -32 55 -41 73 -9 17 -21 32 -26 32 -5 0 -7 4
-4 9 3 5 -1 14 -9 21 -8 7 -15 17 -15 22 0 5 -7 17 -16 26 -15 15 -13 19 27
56 24 22 54 54 67 71 13 16 26 30 30 30 4 0 6 5 6 12 -1 7 2 11 6 10 13 -3 91
74 85 84 -4 5 1 6 9 3 11 -4 16 0 16 11 0 9 3 15 8 13 4 -2 24 13 44 34 21 21
35 38 31 38 -3 0 6 10 21 21 15 12 26 23 24 24 -2 2 -37 13 -78 24 -41 11
-137 38 -212 59 -76 22 -138 37 -138 35 0 -3 -7 0 -15 7 -8 7 -15 9 -15 5 0
-4 -7 -2 -15 5 -8 6 -19 9 -24 6 -5 -4 -12 -2 -16 4 -3 5 -19 10 -34 10 -15 0
-31 4 -36 9 -6 6 -25 13 -44 16 -19 3 -37 8 -41 10 -4 2 -20 7 -37 9 l-30 6 5
-48z"/>
<path d="M948 1175 c-3 -3 -15 -7 -26 -10 -36 -7 -177 -47 -187 -53 -5 -4 -14
-7 -20 -8 -25 -5 -98 -24 -185 -49 -52 -15 -135 -38 -185 -52 -49 -14 -91 -26
-93 -28 -8 -7 81 -84 90 -79 6 4 8 3 5 -3 -5 -8 31 -52 75 -89 7 -6 21 -21 31
-33 10 -12 22 -19 28 -16 5 4 8 1 7 -7 -2 -7 2 -12 9 -11 7 2 10 -4 7 -12 -6
-14 6 -20 29 -16 5 1 5 -3 2 -9 -9 -14 34 -52 49 -43 6 3 8 2 3 -2 -4 -5 5
-21 20 -37 31 -32 34 -23 -56 -173 -33 -55 -72 -120 -86 -145 -51 -91 -63
-110 -75 -126 -11 -12 -2 -11 41 6 30 12 70 26 89 32 19 5 55 18 80 28 73 31
461 174 512 190 15 5 33 12 40 16 7 5 20 9 28 11 8 1 23 6 35 12 11 5 47 19
80 31 33 11 69 24 80 29 11 5 45 18 75 29 30 11 73 27 95 35 l40 15 -48 0
c-26 0 -45 -3 -43 -6 2 -4 -8 -8 -22 -8 -15 -1 -55 -4 -89 -8 -42 -3 -63 -2
-63 6 0 5 9 8 20 5 10 -3 69 4 131 14 61 11 114 18 117 15 2 -3 12 -1 21 3 9
5 32 12 52 15 35 5 89 23 89 28 0 2 -10 35 -23 73 -18 57 -26 70 -42 68 -32
-3 -59 -10 -101 -28 -49 -21 -170 -65 -192 -70 -33 -8 -224 -75 -245 -87 -12
-6 -35 -15 -52 -19 -25 -6 -21 -7 25 -9 30 -1 85 -2 123 -2 37 0 67 -3 67 -7
0 -11 -233 -10 -247 2 -7 5 -13 19 -13 31 0 11 -10 48 -21 81 -12 33 -22 92
-24 131 -2 39 -9 98 -15 130 -7 32 -14 86 -15 119 -2 33 -3 68 -4 78 -1 17
-12 22 -23 12z"/>
</g>
</svg>
